<svg xmlns="http://www.w3.org/2000/svg" width="74.75" height="75.175" viewBox="0 0 74.75 75.175"><defs><style>.a{fill:none;stroke:#0e3e45;stroke-linecap:square;stroke-miterlimit:10;stroke-width:5px;}</style></defs><g transform="translate(0.139 0.5)"><path class="a" d="M20,42v4.678A18.768,18.768,0,0,0,38.713,65.392h2.339A18.768,18.768,0,0,0,59.766,46.678h0" transform="translate(2.989 6.783)"/><circle class="a" cx="9.357" cy="9.357" r="9.357" transform="translate(53.398 34.748)"/><path class="a" d="M34.685,4h9.006A2.369,2.369,0,0,1,46.03,6.69L40.065,44.467a4.774,4.774,0,0,1-4.678,3.977H12.931a4.758,4.758,0,0,1-4.678-3.977L2.4,6.69A2.286,2.286,0,0,1,4.627,4h9.006" transform="translate(0 0.339)"/><line class="a" y2="7.017" transform="translate(13.633 2)"/><line class="a" y2="7.017" transform="translate(34.685 2)"/></g></svg>