<svg xmlns="http://www.w3.org/2000/svg" width="175.053" height="256.129" viewBox="0 0 175.053 256.129"><defs><style>.a{fill:#9d6764;}.b{fill:#fff;}.c{fill:#534034;}.d{fill:#f0988f;}.e{fill:#f9d0ab;}.f{fill:#fbe4d5;}.g{fill:#e6c099;}.h{fill:#f9d3bf;}.i{fill:#f3a481;}.j{fill:#dbdcdc;}.k{fill:#888;}.l{fill:#db8b83;}.m{fill:#eeeeef;}.n{fill:#fcecdd;}</style></defs><g transform="translate(-464.567 -155.763)"><path class="a" d="M666.1,344.655c2.178,5.009,2.561,13.042-9.084,21.965-19.457,14.935-11.925,38.966,2.013,42.225-12.308,10.591-49.614-3-45.086-34.433l.288-2,.4-2.743-.276-1.228a50.705,50.705,0,0,0,19.256-8.3c6.085-4.5,11.216-11.817,15.386-20.007l.507.257a26.173,26.173,0,0,0,12.9-1.095l1.592.69.732,1.629Z" transform="translate(-37.647 -46.376)"/><path class="b" d="M666.868,408.845c-13.938-3.259-21.469-27.291-2.012-42.225,11.644-8.922,11.261-16.956,9.083-21.965l-1.375-3.033-.732-1.629-1.592-.69a20.834,20.834,0,0,1-2.993.86l.05.108c2.371,5.453,2.787,14.2-9.89,23.914-21.184,16.259-12.983,42.423,2.191,45.971a14.189,14.189,0,0,1-3.687,2.234C660.294,412.319,664.178,411.16,666.868,408.845Z" transform="translate(-45.49 -46.376)"/><g transform="translate(574.051 296.776)"><g transform="translate(0 0)"><path class="c" d="M614.882,375.94a42.533,42.533,0,0,0,.22,8.248l.349,2.009.5,1.967a27.529,27.529,0,0,0,1.357,3.8,30.84,30.84,0,0,0,10.018,12.509,35.2,35.2,0,0,0,14.86,6.429,25.691,25.691,0,0,0,7.926.187,13.284,13.284,0,0,0,6.714-2.766l1.019,4.157a18.4,18.4,0,0,1-9.417-5.74,24.088,24.088,0,0,1-5.131-9.427,28.161,28.161,0,0,1-.948-5.257,29.7,29.7,0,0,1,.121-5.328,28.134,28.134,0,0,1,3.272-10.041,31.771,31.771,0,0,1,6.464-8.193l.957-.878,1-.816,1.887-1.527.9-.726.844-.772.85-.768.786-.813a26.784,26.784,0,0,0,2.815-3.445,19.226,19.226,0,0,0,1.909-3.833,12.885,12.885,0,0,0-.153-8.329l-.005-.015a1.592,1.592,0,0,1,2.919-1.253,15.331,15.331,0,0,1,1.549,5.214,15.594,15.594,0,0,1-.427,5.512,20.211,20.211,0,0,1-2.147,5,26.716,26.716,0,0,1-3.214,4.192l-.89.955-.939.886-.947.879-.99.811-1.891,1.551-.883.725-.832.776a27.222,27.222,0,0,0-5.515,7.067,23.5,23.5,0,0,0-2.684,8.4,25.109,25.109,0,0,0-.073,4.4,23.506,23.506,0,0,0,.806,4.313,19.341,19.341,0,0,0,4.142,7.529,14.123,14.123,0,0,0,6.955,4.281l.072.017a2.375,2.375,0,0,1,.948,4.139,17.973,17.973,0,0,1-9.165,3.824,30.342,30.342,0,0,1-9.417-.264,39.812,39.812,0,0,1-16.8-7.383,34.363,34.363,0,0,1-11.339-14.488,29.988,29.988,0,0,1-2.09-9.04,34.671,34.671,0,0,1,.581-9.128,1.591,1.591,0,0,1,3.149.4Z" transform="translate(-611.068 -344.453)"/></g></g><path class="d" d="M557.627,365.549l23.488,13.931-5.388,63.064,1.465,18h-74.9l3.367-21.178-2.436-30.684,4.118-21.606L510.5,381.8l-19.773,32.965a11.07,11.07,0,0,1-13.737,4.566h0a11.223,11.223,0,0,1-6.741-12.195l7.96-48.492,3.108,1.477,26.02-6.443Z" transform="translate(-1.398 -50.01)"/><path class="b" d="M579.03,370.618,559.6,419.566l-17.239-51.86Z" transform="translate(-19.656 -53.553)"/><path class="e" d="M571.774,388.895l7.257-18.277-36.673-2.912,6.31,18.983C553.56,388.752,561.3,390.56,571.774,388.895Z" transform="translate(-19.656 -53.553)"/><g transform="translate(524.311 315.868)"><g transform="translate(0 0)"><path class="c" d="M546.959,376.463c3.014,7.009,5.28,14.266,7.736,21.461l3.644,10.8c1.206,3.6,2.451,7.2,3.624,10.812l-3.607-.1,9.8-24.441c1.64-4.071,3.248-8.155,4.923-12.211s3.427-8.083,5.315-12.056a1.274,1.274,0,0,1,2.363.938c-1.351,4.186-2.843,8.315-4.4,12.418s-3.195,8.176-4.793,12.263l-9.635,24.507a1.918,1.918,0,0,1-3.6-.076l-.009-.027c-1.225-3.6-2.378-7.22-3.571-10.829l-3.55-10.836c-2.339-7.233-4.869-14.4-6.651-21.821a1.276,1.276,0,0,1,2.412-.8Z" transform="translate(-544.511 -370.002)"/></g></g><path class="f" d="M616.343,292.36l5.455-10.194,12.3-3.832.146.448c.591.513,2.187.96,2.562,1.714,2.5,5.056,1.519,21.325-11.393,26.255a26.163,26.163,0,0,1-12.9,1.095L612,307.59c-4.169,8.189-9.3,15.508-15.385,20.007a50.71,50.71,0,0,1-19.256,8.295,98.651,98.651,0,0,1-32.441,1.279c-7.04-1.031-34.087-7-46.86-24-3.822-5.127-6.32-12.527-7.9-20.645l-3.243-3.063c-7.174-1.142-11.9-3.782-14.833-7.1-7.332-8.229-3.888-20.605-.447-24.364,2.076-2.254,5.5-2.361,8.259-1.562l1.162.109L488.686,273c1.01-7.008.969-40.692,41.941-62.4,3.415,11.1,12.743,33.778,39.144,50.524l4.975-.155,3.207-1.3,1.595-4.364a123.341,123.341,0,0,0,38.566,20.568C617.751,281.329,617.138,286.843,616.343,292.36Z" transform="translate(-0.804 -13.855)"/><path class="e" d="M534.861,227.128c14.316,29.655,44.194,49.842,90.707,58.229.362-3.173.675-6.34.884-9.486A123.341,123.341,0,0,1,587.886,255.3l-1.595,4.364-3.207,1.3-4.976.155c-26.4-16.746-35.729-39.427-39.143-50.524-23.982,12.708-33.9,29.513-38.217,42.674C508.3,245.024,522.158,231.425,534.861,227.128Z" transform="translate(-9.142 -13.855)"/><path class="e" d="M502.688,337.676a34.426,34.426,0,0,0,4.167,7.594c12.773,17,39.82,22.974,46.86,24s34.684,3.068,51.7-9.574a38.72,38.72,0,0,0,6.47-6.183c-18.93,11.792-49.205,9.339-57.011,8.2C547.092,360.576,517.59,354.285,502.688,337.676Z" transform="translate(-9.632 -45.965)"/><g transform="translate(610.386 263.337)"><g transform="translate(0)"><path class="c" d="M683.786,300.1c.008-.053.194.01.389.065s.443.135.7.231a5.738,5.738,0,0,1,.872.391,3.459,3.459,0,0,1,1.145.97l.156.239.1.174.114.214c.073.143.155.29.219.431a8.181,8.181,0,0,1,.345.848,11.62,11.62,0,0,1,.47,1.678,22.813,22.813,0,0,1,.269,6.562,25.357,25.357,0,0,1-4.325,12.249,20,20,0,0,1-10.74,7.7,21.48,21.48,0,0,1-12.708.081,1.616,1.616,0,0,1,.387-3.146l.037,0c1.941-.143,3.8-.179,5.626-.352a22.506,22.506,0,0,0,5.272-1,17.126,17.126,0,0,0,4.6-2.369,16.024,16.024,0,0,0,3.583-3.7,21.723,21.723,0,0,0,3.663-9.939,21.1,21.1,0,0,0-.019-5.315c-.061-.423-.115-.836-.2-1.223-.037-.2-.094-.371-.131-.564-.022-.091-.052-.167-.076-.253l-.037-.126-.009-.031.022.04a.57.57,0,0,0,.06.08c.153.159.139.058.047-.024a4.3,4.3,0,0,0-.422-.345l-.624-.442a6.336,6.336,0,0,1-.871-.726,1.589,1.589,0,0,1,2.084-2.4Z" transform="translate(-659.689 -299.709)"/></g></g><g transform="translate(486.251 267.377)"><path class="c" d="M623.086,325.515c-.675,1.693-1.4,3.37-2.1,5.056-.674,1.7-1.512,3.332-2.349,4.967a64.821,64.821,0,0,1-5.887,9.4,42.044,42.044,0,0,1-7.914,8.1,45.192,45.192,0,0,1-9.818,5.635,73.093,73.093,0,0,1-21.59,5.085,108.181,108.181,0,0,1-11.01.445,94.3,94.3,0,0,1-11.049-.728,90.458,90.458,0,0,1-10.82-2.409,104.27,104.27,0,0,1-10.439-3.529,84.333,84.333,0,0,1-10.007-4.726c-1.643-.852-3.19-1.9-4.77-2.874-.78-.506-1.522-1.081-2.284-1.619a27.009,27.009,0,0,1-2.226-1.706l-2.154-1.813c-.7-.628-1.348-1.319-2.023-1.977l-1-1c-.335-.333-.617-.721-.928-1.079l-1.819-2.195a37.755,37.755,0,0,1-5.237-10.122,65.2,65.2,0,0,1-2.749-10.729c-.161-.883-.3-1.8-.437-2.7s-.3-1.808-.366-2.72c-.176-1.819-.371-3.633-.516-5.449a1.588,1.588,0,0,1,3.14-.445l.018.085c.356,1.741.664,3.485.989,5.222s.7,3.442,1.1,5.185a81.925,81.925,0,0,0,2.98,10.027,35.462,35.462,0,0,0,4.7,8.913l1.633,1.942c.279.318.525.662.83.96l.912.9c.615.59,1.2,1.212,1.837,1.779l1.978,1.644a23.638,23.638,0,0,0,2.057,1.557c.708.493,1.39,1.02,2.118,1.486,1.482.9,2.918,1.867,4.473,2.66a79.782,79.782,0,0,0,9.49,4.417,99.7,99.7,0,0,0,9.987,3.315,86.537,86.537,0,0,0,10.213,2.224,89.95,89.95,0,0,0,10.441.739A103.245,103.245,0,0,0,573,359.069a68.531,68.531,0,0,0,20.235-4.627c13.125-4.894,20.619-17.62,26.933-30.176l.026-.052a1.589,1.589,0,0,1,2.9,1.3Z" transform="translate(-493.582 -305.114)"/></g><g transform="translate(473.744 250.732)"><path class="g" d="M478.019,282.846a6.974,6.974,0,0,1,4.06,2.176,14.311,14.311,0,0,1,2.765,3.6,16.6,16.6,0,0,1,1.464,4.222,8.853,8.853,0,0,1,.183,1.086c.049.362.1.725.129,1.089a7.034,7.034,0,0,1-.262,2.176,1.109,1.109,0,0,1-2.057.176l-.061-.125a6.868,6.868,0,0,1-.552-1.882c-.16-.608-.2-1.24-.391-1.83a16.5,16.5,0,0,0-1.3-3.408,13.324,13.324,0,0,0-2.078-2.9c-.8-.869-1.853-1.512-2.616-2.388l-.2-.226a1.07,1.07,0,0,1,.909-1.768Z" transform="translate(-476.847 -282.842)"/></g><g transform="translate(618.47 273.452)"><g transform="translate(0 0)"><path class="g" d="M682.69,315.422c-.945.652-2.119,1-3.119,1.629a14.371,14.371,0,0,0-2.788,2.221,17.934,17.934,0,0,0-2.245,2.87c-.354.506-.593,1.087-.93,1.614a6.75,6.75,0,0,1-1.109,1.6l-.09.092a1.111,1.111,0,0,1-1.9-.809,6.89,6.89,0,0,1,.424-2.125c.14-.333.3-.658.452-.983a9.14,9.14,0,0,1,.5-.964,17.567,17.567,0,0,1,2.6-3.549,15.077,15.077,0,0,1,3.587-2.666,6.989,6.989,0,0,1,4.438-1.044,1.07,1.07,0,0,1,.437,1.935Z" transform="translate(-670.506 -313.244)"/></g></g><g transform="translate(517.537 231.871)"><g transform="translate(0)"><path class="c" d="M549.952,259.469c-.028,1.547-.95,2.64-1.841,3.753a12.483,12.483,0,0,1-3.38,2.924,15.159,15.159,0,0,1-4,1.628,12.377,12.377,0,0,1-2.171.362,4.109,4.109,0,0,1-2.21-.5,1.795,1.795,0,0,1-.153-3.015l.229-.162a4.917,4.917,0,0,1,1.528-.717c.5-.132,1-.243,1.492-.421a16.738,16.738,0,0,0,2.858-1.35,11.159,11.159,0,0,0,2.364-1.843,9.072,9.072,0,0,1,2.564-2.3l.113-.053a1.832,1.832,0,0,1,2.436.879A1.867,1.867,0,0,1,549.952,259.469Z" transform="translate(-535.446 -257.604)"/></g></g><g transform="translate(533.14 293.481)"><g transform="translate(0 0)"><path class="c" d="M557.621,340.285c1.948-.5,3.763-.1,5.611.087s3.681.462,5.52.708c1.832.291,3.666.566,5.492.9s3.678.483,5.4,1.525a1.724,1.724,0,0,1-.46,3.145c-1.948.505-3.764.1-5.611-.087-1.845-.2-3.681-.463-5.52-.709-1.832-.291-3.666-.568-5.492-.9s-3.678-.49-5.4-1.525a1.721,1.721,0,0,1,.46-3.144Z" transform="translate(-556.325 -340.044)"/></g></g><path class="a" d="M580.7,242.23l-1.595,4.364-3.207,1.3-4.975.155c-26.4-16.746-35.729-39.427-39.144-50.524-40.972,21.71-40.931,55.395-41.94,62.4l-7.626-16.464-1.162-.109c-2.754-.8-6.183-.692-8.259,1.562l-.494-.134c2.868-74.64,67.731-89.017,94.547-85.425,26.786,3.587,85.342,33.415,69.862,105.447l-1.455.457-12.3,3.832-5.455,10.194c.8-5.517,1.408-11.031,1.771-16.488A123.341,123.341,0,0,1,580.7,242.23Z" transform="translate(-1.952 -0.781)"/><g transform="translate(567.568 189.511)"><g transform="translate(0)"><path class="c" d="M605.306,201.607c3.266,4.108,6.285,8.522,9.708,12.568a116.881,116.881,0,0,0,10.995,11.477c1.9,1.848,3.983,3.485,6,5.2l3.162,2.4c.53.395,1.04.819,1.587,1.19l1.643,1.109c1.1.729,2.178,1.5,3.3,2.2,1.14.667,2.28,1.334,3.408,2.025.573.328,1.113.72,1.693,1.036s1.152.649,1.729.974c1.143.672,2.283,1.36,3.394,2.131l.1.068a1.6,1.6,0,0,1-1.387,2.836,57.324,57.324,0,0,1-14.812-7.419l-1.745-1.129c-.58-.378-1.122-.809-1.686-1.21l-3.341-2.466c-2.117-1.778-4.308-3.477-6.307-5.389a108.506,108.506,0,0,1-11.3-12.094c-3.432-4.327-6.772-8.721-8.922-13.989a1.6,1.6,0,0,1,2.728-1.6Z" transform="translate(-602.394 -200.922)"/></g></g><g transform="translate(579.171 162.173)"><path class="b" d="M617.92,164.34c27,13.119,58.314,45.18,46.754,104.6l7.37-2.3,1.455-.457C686.591,205.271,646.734,174.543,617.92,164.34Z" transform="translate(-617.92 -164.34)"/></g><g transform="translate(468.752 155.763)"><path class="c" d="M552.358,209.29a104.059,104.059,0,0,0,6.4,8.5q3.434,4.112,7.14,7.988a148.1,148.1,0,0,0,15.954,14.251,123.446,123.446,0,0,0,37.563,19.811A2.284,2.284,0,0,1,621,262.168c-.366,5.586-.982,11.143-1.771,16.665l-4.3-1.411,5.443-10.2a2.3,2.3,0,0,1,1.339-1.112l.011,0,13.746-4.3-1.577,1.73.8-4.32.4-2.16.279-2.175c.178-1.451.386-2.9.542-4.351l.3-4.367a90.615,90.615,0,0,0-.726-17.41,78.5,78.5,0,0,0-4.406-16.768,73.6,73.6,0,0,0-8.117-15.29,84.951,84.951,0,0,0-25.255-23.642,92.766,92.766,0,0,0-15.615-7.79,85.533,85.533,0,0,0-8.266-2.738,63.885,63.885,0,0,0-8.448-1.692,74.086,74.086,0,0,0-17.3.213,96.152,96.152,0,0,0-17.048,3.765,83.79,83.79,0,0,0-30.244,16.881,76.1,76.1,0,0,0-11.572,12.935,79.827,79.827,0,0,0-8.378,15.242c-4.543,10.752-6.678,22.442-7.49,34.2l0,.056a1.588,1.588,0,0,1-3.172-.178l.2-4.535.111-2.269.229-2.261.48-4.527.751-4.5c.22-1.506.59-2.983.938-4.467.368-1.478.64-2.981,1.121-4.432l1.321-4.386,1.6-4.3a79.748,79.748,0,0,1,20.866-29.959,88.341,88.341,0,0,1,31.839-17.881c11.654-3.676,23.926-5.559,36.324-4.245a68.418,68.418,0,0,1,9.108,1.8,89.979,89.979,0,0,1,8.741,2.871A97.392,97.392,0,0,1,600.213,169a88.852,88.852,0,0,1,26.711,24.96,78.412,78.412,0,0,1,8.606,16.3,83.258,83.258,0,0,1,4.64,17.818,95.333,95.333,0,0,1,.728,18.333l-.324,4.57c-.166,1.516-.383,3.024-.574,4.536l-.3,2.267-.421,2.243-.843,4.486a2.228,2.228,0,0,1-1.525,1.714l-.052.016L623.1,270.515l1.349-1.115-5.467,10.188,0,0a2.3,2.3,0,0,1-4.295-1.415c.787-5.423,1.4-10.865,1.771-16.313l1.584,2.323a121.527,121.527,0,0,1-20.363-8.638,130.179,130.179,0,0,1-18.46-12.114,136.491,136.491,0,0,1-16.163-14.977q-3.741-4.046-7.1-8.419a93.2,93.2,0,0,1-6.311-9.111,1.588,1.588,0,0,1,2.684-1.7Z" transform="translate(-470.167 -155.763)"/></g><g transform="translate(478.706 194.366)"><path class="c" d="M486.478,255.064c.721,1.332,1.409,2.68,2.105,4.024s1.378,2.694,2.05,4.05c1.353,2.705,2.7,5.414,4.006,8.141l-4.134.605.475-4.85c.177-1.669.415-3.343.7-5.01a74.7,74.7,0,0,1,2.4-9.878,69.634,69.634,0,0,1,8.931-18.261,77.186,77.186,0,0,1,6.337-7.97,86.984,86.984,0,0,1,7.33-7.037A96.068,96.068,0,0,1,533.491,207.7a2.373,2.373,0,0,1,3.208.983,2.584,2.584,0,0,1,.173.416,88.031,88.031,0,0,0,15.466,29.25A98.148,98.148,0,0,0,563.9,250.329c2.055,1.879,4.26,3.586,6.44,5.332q1.709,1.213,3.393,2.474c1.113.861,2.3,1.592,3.435,2.414l.047.034a1.591,1.591,0,0,1-1.664,2.7c-2.583-1.34-5.034-2.882-7.48-4.442-2.363-1.683-4.786-3.309-6.986-5.222A88.316,88.316,0,0,1,548.792,241.2a92.69,92.69,0,0,1-16.458-30.714l3.38,1.4a97.931,97.931,0,0,0-15.949,10.661,82.286,82.286,0,0,0-6.927,6.575,72.305,72.305,0,0,0-5.97,7.42,65,65,0,0,0-8.434,17,70.4,70.4,0,0,0-2.306,9.259q-.41,2.358-.713,4.748c-.215,1.61-.332,3.174-.6,4.953l-.005.036a2.171,2.171,0,0,1-2.467,1.829,2.2,2.2,0,0,1-1.663-1.259c-1.237-2.76-2.43-5.54-3.619-8.322-.6-1.389-1.2-2.779-1.764-4.182s-1.158-2.8-1.708-4.207a1.592,1.592,0,0,1,2.883-1.336Z" transform="translate(-483.486 -207.418)"/></g><g transform="translate(464.567 240.088)"><path class="c" d="M478.652,272.608a9.623,9.623,0,0,0-5,.688,3.707,3.707,0,0,0-.836.569,3.36,3.36,0,0,0-.349.35l-.357.466a12.323,12.323,0,0,0-1.262,2.4,20.566,20.566,0,0,0-1.157,11.332c.111.456.181.926.315,1.374l.433,1.331.572,1.268a12.664,12.664,0,0,0,.687,1.2,7.354,7.354,0,0,0,.8,1.135,13.2,13.2,0,0,0,.878,1.084,15.4,15.4,0,0,0,2.089,1.883,21.707,21.707,0,0,0,5.12,2.767c1.847.753,3.79,1.365,5.777,2.091l.037.013a1.611,1.611,0,0,1-.537,3.125,22.636,22.636,0,0,1-13.128-4.255,20.147,20.147,0,0,1-2.781-2.383,15.913,15.913,0,0,1-1.2-1.4,11.017,11.017,0,0,1-1.078-1.5,17.324,17.324,0,0,1-.932-1.6c-.261-.559-.527-1.117-.773-1.681l-.59-1.745c-.179-.586-.287-1.186-.428-1.78a23.921,23.921,0,0,1-.218-7.183,24.25,24.25,0,0,1,1.858-6.9,16.757,16.757,0,0,1,1.858-3.27l.656-.8a7.752,7.752,0,0,1,2.72-1.915,9.01,9.01,0,0,1,4.042-.651,10.218,10.218,0,0,1,3.664.94,1.609,1.609,0,0,1-.809,3.058Z" transform="translate(-464.567 -268.599)"/></g><g transform="translate(509.404 254.626)"><path class="h" d="M603.315,323.029c-2.5,13.5-18.747,6.276-40.432,2.2s-40.6-3.468-38.1-16.971,22.105-21.143,43.79-17.063S605.815,309.526,603.315,323.029Z" transform="translate(-524.564 -288.568)"/><g transform="translate(3.92)"><g transform="translate(51.856 18.405)"><path class="i" d="M617.5,314.3a27.018,27.018,0,0,1-3.8,4.747c-1.352,1.5-2.734,2.979-4.108,4.462-1.4,1.461-2.784,2.93-4.2,4.37a26.8,26.8,0,0,1-4.509,4.083,1.093,1.093,0,0,1-1.542-1.451,26.77,26.77,0,0,1,3.8-4.748c1.352-1.5,2.734-2.979,4.108-4.461,1.4-1.462,2.785-2.93,4.2-4.37a27.017,27.017,0,0,1,4.508-4.084A1.094,1.094,0,0,1,617.5,314.3Z" transform="translate(-599.198 -312.681)"/></g><g transform="translate(38.666 9.862)"><path class="i" d="M605.134,302.905a46.485,46.485,0,0,1-5.117,6.143c-1.79,1.968-3.609,3.909-5.421,5.857-1.834,1.927-3.66,3.861-5.517,5.767a46.135,46.135,0,0,1-5.822,5.479,1.079,1.079,0,0,1-1.542-1.452,46.167,46.167,0,0,1,5.116-6.144c1.79-1.968,3.609-3.909,5.422-5.856,1.834-1.927,3.661-3.861,5.518-5.766a46.5,46.5,0,0,1,5.822-5.48,1.079,1.079,0,0,1,1.542,1.452Z" transform="translate(-581.548 -301.249)"/></g><g transform="translate(25.048 3.986)"><path class="i" d="M590.132,295.057a61.171,61.171,0,0,1-5.919,7l-6.224,6.709-6.319,6.619a60.671,60.671,0,0,1-6.624,6.331,1.074,1.074,0,0,1-1.542-1.452,60.668,60.668,0,0,1,5.918-7l6.224-6.709,6.319-6.618a61.089,61.089,0,0,1,6.624-6.332,1.075,1.075,0,0,1,1.543,1.452Z" transform="translate(-563.326 -293.387)"/></g><g transform="translate(11.254 0.423)"><path class="i" d="M572.9,290.294a67.1,67.1,0,0,1-6.226,7.321l-6.529,7.035-6.625,6.944a66.649,66.649,0,0,1-6.931,6.657,1.073,1.073,0,0,1-1.543-1.451,66.652,66.652,0,0,1,6.224-7.322l6.53-7.035,6.626-6.943a67.1,67.1,0,0,1,6.93-6.658,1.073,1.073,0,0,1,1.543,1.452Z" transform="translate(-544.868 -288.619)"/></g><path class="i" d="M553.6,289.71a47.409,47.409,0,0,1-5.168,6.2c-1.807,1.986-3.644,3.946-5.473,5.911-1.851,1.945-3.695,3.9-5.568,5.822a47.048,47.048,0,0,1-5.874,5.534,1.079,1.079,0,0,1-1.543-1.452,46.985,46.985,0,0,1,5.168-6.2c1.807-1.987,3.644-3.945,5.473-5.911,1.852-1.945,3.7-3.9,5.569-5.82a47.422,47.422,0,0,1,5.873-5.535,1.078,1.078,0,0,1,1.542,1.452Z" transform="translate(-529.809 -288.053)"/></g></g><g transform="translate(541.496 264.811)"><g transform="translate(0 0)"><path class="c" d="M577.332,306.275a7.572,7.572,0,0,1-3.827.416c-1.261-.046-2.521-.1-3.778-.2l2.466-3.2c.462,1.3.9,2.619,1.292,3.946.2.664.415,1.321.6,1.991a5,5,0,0,1,.084,2.17A1.845,1.845,0,0,1,572,312.85a1.863,1.863,0,0,1-.83-.4,5,5,0,0,1-1.29-1.747c-.276-.637-.518-1.285-.778-1.927-.522-1.284-1-2.581-1.457-3.888l0-.007a2.412,2.412,0,0,1,1.486-3.069,2.466,2.466,0,0,1,.983-.126c1.256.1,2.509.249,3.761.4a7.578,7.578,0,0,1,3.713,1.016,1.845,1.845,0,0,1-.252,3.168Z" transform="translate(-567.506 -301.681)"/></g></g><g transform="translate(511.339 256.003)"><g transform="translate(0 0)"><path class="c" d="M529.183,289.9c2.891.22,5.416,1.363,8.02,2.3,1.3.488,2.6.954,3.888,1.46l3.873,1.5a2.724,2.724,0,0,1-.031,5.092l-.016.006c-2.5.921-4.994,1.849-7.513,2.713-1.26.433-2.509.893-3.777,1.3a15.522,15.522,0,0,1-3.991.734,1.9,1.9,0,0,1-1.267-3.371,15.542,15.542,0,0,1,3.486-2.076c1.223-.528,2.467-1,3.7-1.509,2.465-1.01,4.953-1.956,7.44-2.909l-.047,5.1-3.846-1.566c-1.284-.516-2.553-1.072-3.83-1.605-2.541-1.1-5.162-2-7.416-3.827a1.887,1.887,0,0,1-.28-2.653A1.907,1.907,0,0,1,529.183,289.9Z" transform="translate(-527.154 -289.895)"/></g></g><g transform="translate(564.505 268.032)"><path class="c" d="M617.663,310.277c-2.75.912-5.517.83-8.28.966-1.382.049-2.764.122-4.145.151l-4.147.108,1.751-4.789c2,1.77,4,3.535,5.958,5.351.979.907,1.978,1.792,2.941,2.719a15.617,15.617,0,0,1,2.541,3.176,1.9,1.9,0,0,1-2.371,2.711,15.587,15.587,0,0,1-3.486-2.1c-1.046-.83-2.056-1.7-3.086-2.553-2.06-1.7-4.075-3.449-6.1-5.193l0,0a2.724,2.724,0,0,1,1.755-4.785l4.148-.038c1.383-.019,2.766,0,4.148,0,2.767.038,5.529-.142,8.309.673a1.886,1.886,0,0,1,.064,3.6Z" transform="translate(-598.295 -305.992)"/></g><g transform="translate(499.385 335.711)"><path class="c" d="M519.21,398.2a106.756,106.756,0,0,1-1.44,10.921l-1.964,10.82.033-.6,1.283,15.337,1.149,15.348,0,.029a2.149,2.149,0,0,1-.023.5l-1.777,10.575a102.7,102.7,0,0,1-2.3,10.49,1.536,1.536,0,0,1-3.012-.478,102.9,102.9,0,0,1,1.063-10.688l1.589-10.6-.021.531L512.5,435.043l-1.153-15.348,0-.028a2.161,2.161,0,0,1,.034-.571l2.153-10.785a106.344,106.344,0,0,1,2.678-10.685,1.536,1.536,0,0,1,3,.571Z" transform="translate(-511.157 -396.553)"/></g><g transform="translate(569.431 345.116)"><path class="c" d="M607.854,410.1c.64,1.572,1.176,3.171,1.675,4.779s.951,3.227,1.381,4.852l2.531,9.762a2.115,2.115,0,0,1,.066.644l0,.041-.724,12.682-.843,12.675,0-.321.685,9.589c.1,1.6.188,3.2.217,4.8s.034,3.212-.068,4.828a1.541,1.541,0,0,1-3.041.248c-.362-1.578-.622-3.165-.847-4.754s-.4-3.182-.563-4.776l-.874-9.574a2.04,2.04,0,0,1-.006-.277l0-.043.716-12.683.835-12.676.063.685-2.342-9.809c-.382-1.637-.748-3.278-1.055-4.934s-.59-3.317-.762-5.006a1.541,1.541,0,0,1,2.96-.737Z" transform="translate(-604.886 -409.138)"/></g><g transform="translate(527.977 331.888)"><path class="c" d="M550.974,391.442a38.089,38.089,0,0,1,5.518,1.132,45.256,45.256,0,0,0,5.524.785,50.472,50.472,0,0,0,5.612.191,28.189,28.189,0,0,1,5.721.038l.041.007a1.431,1.431,0,0,1,.389,2.68,15.482,15.482,0,0,1-5.973,1.238,40.5,40.5,0,0,1-6.141-.034,37.675,37.675,0,0,1-6.084-1.047,13.911,13.911,0,0,1-5.662-2.483,1.427,1.427,0,0,1,.99-2.512Z" transform="translate(-549.417 -391.437)"/></g><g transform="translate(586.581 273.328)"><path class="i" d="M633.019,313.538a4.858,4.858,0,0,1,.631,3.327,13.327,13.327,0,0,1-.639,3.18,15.975,15.975,0,0,1-2.246,4.175,3.914,3.914,0,0,1-1.239,1,1.172,1.172,0,0,1-1.684-1.179l.014-.124a3.614,3.614,0,0,1,.458-1.344c.191-.405.452-.768.635-1.169a18.237,18.237,0,0,0,1.013-2.4,14.324,14.324,0,0,0,.617-2.462,9.13,9.13,0,0,1,.4-2.436l.2-.424a1.065,1.065,0,0,1,1.838-.148Z" transform="translate(-627.835 -313.079)"/><g transform="translate(5.057 1.879)"><path class="i" d="M639.1,315.99a4.2,4.2,0,0,1,.548,2.888,11.558,11.558,0,0,1-.555,2.76,13.257,13.257,0,0,1-1.187,2.495c-.232.394-.494.764-.76,1.131a3.457,3.457,0,0,1-1.076.869,1.019,1.019,0,0,1-1.461-1.044l.011-.087a6.746,6.746,0,0,1,.949-2.181,16.014,16.014,0,0,0,.88-2.081,12.453,12.453,0,0,0,.534-2.137,7.892,7.892,0,0,1,.347-2.114l.176-.368a.924.924,0,0,1,1.594-.129Z" transform="translate(-634.603 -315.592)"/></g></g><g transform="translate(497.355 255.987)"><g transform="translate(4.453)"><path class="i" d="M518.169,291.269a9.176,9.176,0,0,1-.375,2.44,14.334,14.334,0,0,0-.177,2.534,18.5,18.5,0,0,0,.22,2.6c.05.439.186.865.241,1.309a3.6,3.6,0,0,1,.018,1.421l-.025.123a1.172,1.172,0,0,1-1.386.907,1.157,1.157,0,0,1-.581-.31,3.927,3.927,0,0,1-.866-1.339,15.637,15.637,0,0,1-.43-1.51,15.405,15.405,0,0,1-.41-3.157,13.344,13.344,0,0,1,.377-3.224,4.856,4.856,0,0,1,1.632-2.97,1.064,1.064,0,0,1,1.7.705Z" transform="translate(-514.399 -289.873)"/></g><g transform="translate(0 0.377)"><path class="i" d="M511.713,291.589a7.852,7.852,0,0,1-.326,2.118,12.493,12.493,0,0,0-.153,2.2,15.959,15.959,0,0,0,.191,2.254,6.729,6.729,0,0,1,.225,2.371l-.016.086a1.018,1.018,0,0,1-1.713.538,3.472,3.472,0,0,1-.753-1.161c-.139-.431-.272-.865-.371-1.311a13.322,13.322,0,0,1-.356-2.74,11.551,11.551,0,0,1,.327-2.8,4.207,4.207,0,0,1,1.417-2.578.923.923,0,0,1,1.474.612Z" transform="translate(-508.441 -290.378)"/></g></g><g transform="translate(466.416 306.858)"><path class="c" d="M511.036,383.665q-1.673,3.311-3.473,6.545-1.77,3.252-3.63,6.45c-2.472,4.269-5.029,8.487-7.54,12.734l-3.783,6.359-.472.8-.237.4-.294.456a13.044,13.044,0,0,1-1.347,1.759,13.354,13.354,0,0,1-23.186-8.135,13.963,13.963,0,0,1,.028-2.223c.044-.356.089-.761.14-1.077l.153-.912.613-3.648,2.45-14.594c1.67-9.723,3.116-19.483,5.259-29.129l.043-.2a1.664,1.664,0,0,1,1.986-1.263,1.7,1.7,0,0,1,.44.166c1.007.553,2.019,1.1,3.015,1.673a1.531,1.531,0,0,1-1.309,2.756c-1.076-.407-2.137-.848-3.2-1.279l2.468-1.293c-1.052,9.824-2.8,19.535-4.328,29.282L472.486,403.9l-.585,3.653-.146.913c-.044.292-.058.5-.092.758a9.3,9.3,0,0,0-.008,1.471,9.111,9.111,0,0,0,2.264,5.313,8.763,8.763,0,0,0,13.032.123,8.639,8.639,0,0,0,.906-1.167l.212-.318.239-.4.479-.791,3.829-6.331c2.563-4.214,5.081-8.456,7.683-12.648q1.952-3.143,3.981-6.239,2.007-3.111,4.139-6.145a1.529,1.529,0,0,1,2.616,1.569Z" transform="translate(-467.041 -357.944)"/></g><g transform="translate(549.1 273.904)"><path class="b" d="M578.116,326.709c1.128,3.03,3.939,4.463,6.279,3.2s3.321-4.745,2.193-7.775-8.173-8.285-8.173-8.285S576.988,323.678,578.116,326.709Z" transform="translate(-577.682 -313.848)"/></g><path class="b" d="M623.739,326.769c0,1.59-2.163,2.878-4.831,2.878s-4.831-1.288-4.831-2.878,2.163-2.879,4.831-2.879S623.739,325.178,623.739,326.769Z" transform="translate(-37.777 -42.482)"/><g transform="translate(485.048 247.277)"><g transform="translate(19.58 47.6)"><path class="b" d="M597.263,355.47l-.416,2.686a16.509,16.509,0,0,1-12.629,13.751l-.115.025a77.475,77.475,0,0,1-56.125-9.215,16.733,16.733,0,0,1-7.785-16.95l.371-2.389A337.806,337.806,0,0,0,597.263,355.47Z" transform="translate(-518.632 -342.283)"/><g transform="translate(8.486 12.338)"><path class="j" d="M530.315,358.473a125.336,125.336,0,0,0,13.636,5.208,112.391,112.391,0,0,0,14.2,3.41,103.957,103.957,0,0,0,14.526,1.4c4.874.146,9.739-.061,14.6-.4a.558.558,0,0,1,.139,1.105,75.3,75.3,0,0,1-14.787.9,105.436,105.436,0,0,1-14.77-1.345,113.964,113.964,0,0,1-14.395-3.542,69.68,69.68,0,0,1-13.66-5.752.558.558,0,0,1,.5-1Z" transform="translate(-529.527 -358.423)"/></g><g transform="translate(10.673 7.02)"><path class="j" d="M533.178,351.331c4.508,1.38,9.007,2.747,13.583,3.87s9.2,2.043,13.852,2.778c4.645.763,9.33,1.3,14.027,1.646s9.4.443,14.12.561a.558.558,0,0,1,.034,1.113,95.385,95.385,0,0,1-14.266-.068c-4.747-.321-9.481-.836-14.183-1.582q-7.042-1.152-13.973-2.885a91.21,91.21,0,0,1-13.58-4.388.557.557,0,0,1,.385-1.045Z" transform="translate(-532.455 -351.307)"/></g><g transform="translate(0.898)"><path class="k" d="M597.06,356.214c-3.26.11-6.52.04-9.773-.123-3.252-.187-6.5-.475-9.741-.767q-9.729-.92-19.4-2.389-9.653-1.551-19.2-3.664l-4.764-1.092L529.438,347c-3.146-.85-6.267-1.794-9.331-2.919a1.117,1.117,0,0,1,.586-2.148l.016,0c1.6.292,3.178.627,4.752.992,1.583.326,3.157.685,4.726,1.06l4.716,1.095,4.726,1.042q9.469,2.013,19.043,3.468,9.556,1.538,19.193,2.528l4.819.463,4.825.416q2.413.193,4.824.457,2.415.212,4.826.534l.014,0a1.117,1.117,0,0,1-.111,2.223Z" transform="translate(-519.374 -341.914)"/></g><g transform="translate(0 0.042)"><path class="k" d="M521.2,343.193l-.154,1.605-.084.8-.047.746c-.048.495-.014.993-.031,1.486.025.494.043.989.105,1.477a16.523,16.523,0,0,0,1.7,5.593,15.029,15.029,0,0,0,3.554,4.565c.35.336.761.6,1.135.9.422.26.779.528,1.249.785.911.516,1.814,1.044,2.752,1.515a79.358,79.358,0,0,0,11.626,4.882,83.5,83.5,0,0,0,12.206,3.12,85.764,85.764,0,0,0,25.131-.12c1.039-.148,2.062-.377,3.092-.568a14.356,14.356,0,0,0,2.741-.895,14.786,14.786,0,0,0,4.712-3.329,16.977,16.977,0,0,0,3.222-4.877,17.961,17.961,0,0,0,.912-2.822c.244-.972.433-2.085.679-3.116l0-.019a1.116,1.116,0,0,1,2.2.361c-.1,1.087-.188,2.106-.346,3.243a17.169,17.169,0,0,1-.825,3.37,17.682,17.682,0,0,1-3.573,5.976,17.153,17.153,0,0,1-5.689,4.118,17.6,17.6,0,0,1-3.365,1.119c-1.079.208-2.152.454-3.238.616a83.93,83.93,0,0,1-13.077,1.111q-3.278.04-6.553-.157c-2.187-.132-4.358-.324-6.573-.671a86.633,86.633,0,0,1-12.713-3.331,82.6,82.6,0,0,1-12.07-5.161c-.978-.5-1.926-1.06-2.879-1.61-.472-.262-.984-.627-1.47-.94-.46-.369-.952-.7-1.38-1.107a18.174,18.174,0,0,1-2.412-2.577,17.938,17.938,0,0,1-1.829-3.006,17.376,17.376,0,0,1-1.72-6.743,16.424,16.424,0,0,1,.165-3.465l.141-.853.162-.789.34-1.577a1.115,1.115,0,0,1,2.2.341Z" transform="translate(-518.173 -341.97)"/></g></g><path class="k" d="M512.46,327.352a112.586,112.586,0,0,1-5.567-11.729l-5.186-11.893-5.036-11.957a112.011,112.011,0,0,1-4.654-12.122,1.123,1.123,0,0,1,2.048-.877,112.019,112.019,0,0,1,5.568,11.73l5.186,11.893,5.035,11.957a112.747,112.747,0,0,1,4.655,12.121,1.123,1.123,0,0,1-2.048.877Z" transform="translate(-491.973 -278.219)"/><g transform="translate(97.951 18.992)"><path class="k" d="M623.233,344.821a122.71,122.71,0,0,1,8.484-10.549l8.8-10.278,8.92-10.172a121.681,121.681,0,0,1,9.235-9.9,1.122,1.122,0,0,1,1.683,1.459,121.56,121.56,0,0,1-8.483,10.55l-8.8,10.278-8.92,10.17a122.45,122.45,0,0,1-9.234,9.9,1.122,1.122,0,0,1-1.684-1.459Z" transform="translate(-623.042 -303.633)"/></g></g><g transform="translate(548.694 289.792)"><g transform="translate(12.049 39.972)"><path class="d" d="M610.454,392.23l3.191-.778,14.615,40.714a10.737,10.737,0,0,1,.235,6.363,10.41,10.41,0,0,1-16.118,5.812L611,443.378a10.764,10.764,0,0,1-4.067-5.923l-10.879-41.738,4.164-1.019Z" transform="translate(-593.967 -389.317)"/><path class="l" d="M611.013,451.513a10.76,10.76,0,0,0,3.767,5.093l1.377.963a10.41,10.41,0,0,0,16.118-5.81,10.741,10.741,0,0,0-.236-6.365l-.569-1.589C623.714,450.278,616.421,451.724,611.013,451.513Z" transform="translate(-597.746 -402.545)"/><g transform="translate(0 2.927)"><path class="c" d="M603.845,395.49q-1.981.711-3.984,1.328T595.842,398l1.516-2.541c.853,2.888,1.613,5.8,2.4,8.708l2.345,8.721c1.534,5.822,3.1,11.637,4.589,17.469l1.125,4.373.563,2.187.129.472c.037.14.092.279.135.42.1.277.211.552.341.818a8.519,8.519,0,0,0,2.146,2.821c.382.341,1.062.794,1.661,1.229.309.221.527.336.791.515a4.618,4.618,0,0,0,.787.42,8.287,8.287,0,0,0,6.919.019,9.8,9.8,0,0,0,5.027-5.233l.028-.066a1.531,1.531,0,0,1,2.918.861,11.26,11.26,0,0,1-2.072,4.794,11.784,11.784,0,0,1-4.09,3.438,12.275,12.275,0,0,1-10.56.2,8.331,8.331,0,0,1-1.211-.622c-.368-.229-.806-.489-1.111-.7-.622-.442-1.217-.8-1.983-1.434a12.908,12.908,0,0,1-3.886-5.523c-.072-.217-.152-.43-.214-.653l-.173-.616-.576-2.184-1.152-4.367c-1.547-5.82-3.02-11.659-4.524-17.491l-2.21-8.759c-.734-2.921-1.493-5.834-2.158-8.772l-.028-.126a2.015,2.015,0,0,1,1.52-2.41l.025-.005q2.05-.438,4.116-.808c1.378-.246,2.764-.454,4.158-.635a1.534,1.534,0,0,1,.714,2.966Z" transform="translate(-593.261 -392.511)"/></g><g transform="translate(12.858)"><path class="c" d="M630.465,431.959a64.583,64.583,0,0,1-4.292-9.949q-1.9-5.062-3.748-10.145c-1.251-3.381-2.42-6.791-3.63-10.187-1.164-3.412-2.374-6.808-3.5-10.234l2.489,1.339a40.269,40.269,0,0,1-5.688.775,1.552,1.552,0,0,1-.729-2.959l.015-.007c.88-.4,1.778-.732,2.678-1.052s1.812-.595,2.724-.864a2,2,0,0,1,2.43,1.185l.06.154c1.311,3.359,2.537,6.749,3.809,10.122,1.226,3.39,2.493,6.766,3.678,10.17q1.816,5.093,3.56,10.211a64.6,64.6,0,0,1,3.016,10.408,1.551,1.551,0,0,1-2.872,1.031Z" transform="translate(-610.466 -388.595)"/></g></g><path class="b" d="M583.1,392.75s-10.159-50.2,8.311-54.385,38.589,54.064,31.03,56.8-21.793-8.45-25.136-5.12S585.125,404.131,583.1,392.75Z" transform="translate(-577.941 -335.877)"/><path class="m" d="M592.327,363.568c-6.3,1.427-3.417,24.971-.917,39.946,2.989-1.58,6.227-5.317,7.972-7.055,1.705-1.7,6.248.38,11.29,2.462C605.722,382,597.752,362.34,592.327,363.568Z" transform="translate(-580.016 -342.285)"/><path class="c" d="M621.224,372.723a69.205,69.205,0,0,1,3.187,10.022,39.89,39.89,0,0,1,.92,5.325,20.892,20.892,0,0,1,.088,2.862,8.843,8.843,0,0,1-.7,3.322,4.392,4.392,0,0,1-1.685,1.936,5.344,5.344,0,0,1-.674.315l-.409.129a6.266,6.266,0,0,1-.82.215,11.174,11.174,0,0,1-3.157.2,23.722,23.722,0,0,1-5.566-1.146c-3.453-1.1-6.627-2.576-9.718-3.762-.77-.3-1.531-.569-2.26-.78a8.616,8.616,0,0,0-1.95-.386l-.182-.008-.126.016c-.108,0-.1.03-.144.021-.013,0,.018.008.021,0s.012-.02.045-.028c.013,0,.066-.067.023-.031l-.21.214-1.767,1.847a41.761,41.761,0,0,1-3.979,3.722,16.968,16.968,0,0,1-2.479,1.671,7.666,7.666,0,0,1-3.507,1.027,5.247,5.247,0,0,1-2.288-.469,5.477,5.477,0,0,1-1.78-1.38,8.861,8.861,0,0,1-1.642-3.111,25.94,25.94,0,0,1-.643-2.779l-.463-2.578q-.871-5.149-1.439-10.333a118.164,118.164,0,0,1-.519-20.984,49.52,49.52,0,0,1,1.9-10.625,25.075,25.075,0,0,1,2.258-5.2,15.014,15.014,0,0,1,3.99-4.529,12.153,12.153,0,0,1,2.77-1.52,11.78,11.78,0,0,1,3.092-.755,12.313,12.313,0,0,1,6.147,1.054,25.471,25.471,0,0,1,8.741,7.011,54.228,54.228,0,0,1,5.993,8.808,76.312,76.312,0,0,1,4.488,9.481,1.591,1.591,0,0,1-2.884,1.334l0-.007c-3.183-5.954-6.629-11.814-10.938-16.713a31.37,31.37,0,0,0-3.417-3.344,15.778,15.778,0,0,0-3.779-2.406,7.766,7.766,0,0,0-3.88-.676,7.257,7.257,0,0,0-1.885.477,7.57,7.57,0,0,0-1.721.959c-2.16,1.583-3.6,4.405-4.527,7.406a44.983,44.983,0,0,0-1.644,9.608,113.747,113.747,0,0,0,.621,20.11c.348,3.361.8,6.721,1.343,10.057l.432,2.489a22.378,22.378,0,0,0,.492,2.237,4.484,4.484,0,0,0,.688,1.433c.247.256.189.214.43.236a3.226,3.226,0,0,0,1.366-.46,12.355,12.355,0,0,0,1.784-1.2,37.553,37.553,0,0,0,3.545-3.29l1.8-1.86.243-.244a6.336,6.336,0,0,1,.522-.434,2.7,2.7,0,0,1,.592-.359,4.983,4.983,0,0,1,.608-.259,5.4,5.4,0,0,1,1.114-.228l.515-.039.46.012a12.815,12.815,0,0,1,3.088.587c.917.274,1.769.587,2.6.91,3.3,1.3,6.362,2.73,9.447,3.729a19.466,19.466,0,0,0,4.479.971,7.265,7.265,0,0,0,1.963-.083,2.441,2.441,0,0,0,.425-.1l.207-.056a.213.213,0,0,0-.09.049c-.156.1-.122.14-.051,0a5.394,5.394,0,0,0,.35-1.685,16.769,16.769,0,0,0,0-2.279,44.364,44.364,0,0,0-.586-4.849c-.581-3.267-1.387-6.544-2.276-9.809l0-.007a1.591,1.591,0,0,1,3.014-1.006Z" transform="translate(-577.138 -335.108)"/><g transform="translate(20.475 15.007)"><path class="c" d="M606.389,355.513a30.807,30.807,0,0,1,4.2,6.047q1.868,3.165,3.519,6.461c1.067,2.215,2.118,4.444,2.974,6.776a22.065,22.065,0,0,1,1.786,7.276,1.079,1.079,0,0,1-2.057.469l-.016-.035c-1-2.158-1.669-4.382-2.584-6.573-.9-2.188-1.924-4.344-2.986-6.481-1.041-2.15-2.181-4.258-3.32-6.368a52.181,52.181,0,0,1-3.29-6.414l-.008-.022a1.081,1.081,0,0,1,1.784-1.134Z" transform="translate(-604.537 -355.19)"/></g></g><g transform="translate(478.365 267.127)"><path class="n" d="M524.147,309.78c.09,3.225-15.991,8.769-17.754,9.4,1.255-.09,9.355-.723,9.475,2.953.06,2.32-2.839,3.556-5.231,4.189v.03c2.093-.15,4.423.6,4.752,2.652a.226.226,0,0,1,.03.15c.09,3.1-3.5,4.249-5.589,4.611.478-.031,1.016-.09,1.584-.09,1.734,0,3.646.362,3.915,1.838a3.315,3.315,0,0,1-.538,2.983c-.986,1.176-3.287,2.23-8.07,3.646a9.175,9.175,0,0,1-1.166,5.846c-2.69,4.279-8.848,4.58-8.848,4.58l-.538,1.235-11.059-5.273c.359-1.507,5.679-22.6,9.535-31.37A15.616,15.616,0,0,1,496.379,314c5.978-5.394,19.578-7.022,25.227-5.816C523.16,308.485,524.117,309.027,524.147,309.78Z" transform="translate(-483.556 -305.545)"/><g transform="translate(0 0)"><path class="c" d="M505.351,316.982c3.787-1.794,7.606-3.39,11.231-5.189.9-.455,1.786-.912,2.611-1.406a11.076,11.076,0,0,0,2.084-1.507.889.889,0,0,0,.134-.149c.043-.046.076-.087.066-.09a.035.035,0,0,1,.015-.014.239.239,0,0,0-.034.058c-.013.031-.005.04-.022.093a.592.592,0,0,0-.037.21.778.778,0,0,0,.008.108.826.826,0,0,0,.012.155,1.281,1.281,0,0,0,.074.278,1.1,1.1,0,0,0,.2.341c.116.119.09.078.013.045a8.787,8.787,0,0,0-2.287-.482,32.342,32.342,0,0,0-5.82.037,42.175,42.175,0,0,0-5.89.922,35.329,35.329,0,0,0-5.6,1.76,16.6,16.6,0,0,0-4.719,2.788l.253-.267a9.671,9.671,0,0,0-.906,1.532c-.312.614-.6,1.268-.871,1.941s-.549,1.345-.809,2.037-.519,1.386-.77,2.088c-1,2.807-1.919,5.674-2.8,8.554l-2.585,8.68c-.878,2.886-1.8,5.795-2.823,8.618l-.119.326h0a1.147,1.147,0,0,0,.12-.591,1.525,1.525,0,1,1-3.051,0,1.98,1.98,0,0,1,.179-.772l-.117.326c.435-3.07,1.069-6.031,1.785-9s1.543-5.9,2.4-8.839,1.746-5.866,2.743-8.793c.5-1.466,1.019-2.921,1.636-4.394.3-.734.612-1.474.983-2.217a13.626,13.626,0,0,1,1.427-2.37,1.851,1.851,0,0,1,.219-.238l.034-.03a21.04,21.04,0,0,1,6.005-3.647A39.042,39.042,0,0,1,506.7,305.9a46.753,46.753,0,0,1,6.518-.983,34.611,34.611,0,0,1,6.723.051c.577.064,1.173.184,1.758.294a8.259,8.259,0,0,1,2.033.691,4.341,4.341,0,0,1,1.275.963,3.357,3.357,0,0,1,.617,1,3.172,3.172,0,0,1,.175.657c.016.116.028.232.035.349s-.006.2-.013.3a5.005,5.005,0,0,1-.085.6,3.6,3.6,0,0,1-.156.46,3.871,3.871,0,0,1-.188.419l-.2.318a3.828,3.828,0,0,1-.4.537,4.466,4.466,0,0,1-.4.428,14.9,14.9,0,0,1-3,2.157c-.983.563-1.959,1.064-2.946,1.521a66.255,66.255,0,0,1-12.069,4.186l-.01,0a1.533,1.533,0,0,1-1.02-2.874Z" transform="translate(-483.03 -304.781)"/></g><g transform="translate(11.767 18.692)"><path class="c" d="M510.761,330.836c.2-.1.457-.213.7-.3s.5-.187.755-.268a13.075,13.075,0,0,1,1.6-.4l.188-.009.09-.007-.149.005a8.873,8.873,0,0,1,2.311.045,6.557,6.557,0,0,1,2.442.9,5.2,5.2,0,0,1,1.969,2.232,6.158,6.158,0,0,1,.442,1.357,4.819,4.819,0,0,1,.055,1.658,5,5,0,0,1-1.526,2.8,8.684,8.684,0,0,1-1.955,1.395,14.139,14.139,0,0,1-1.93.847,13.977,13.977,0,0,1-2.063.577l-.552-4.7a16.691,16.691,0,0,1,2.594-.1,7.622,7.622,0,0,1,3.233.8,4.423,4.423,0,0,1,1.8,1.757,5.371,5.371,0,0,1,.28.652l.093.336c.025.1.061.258.064.293.042.242.078.478.105.742a6.378,6.378,0,0,1-.053,1.844,5.055,5.055,0,0,1-.866,2.027,7.742,7.742,0,0,1-2.57,2.151,18.953,18.953,0,0,1-2.385,1.084c-1.548.591-3.054,1.053-4.56,1.494l1.734-2.572a12.582,12.582,0,0,1-.5,5,9.979,9.979,0,0,1-2.879,4.417,11.326,11.326,0,0,1-4.311,2.4,12.61,12.61,0,0,1-2.3.465,10.732,10.732,0,0,1-2.372.008,1.64,1.64,0,0,1-.385-3.172l.226-.081,1.673-.605c.562-.218,1.111-.441,1.628-.694a10.342,10.342,0,0,0,2.692-1.749,5.209,5.209,0,0,0,1.468-2.407,8.252,8.252,0,0,0,.2-3.11,2.431,2.431,0,0,1,1.708-2.565l.026-.007c1.426-.434,2.841-.89,4.148-1.407a16.174,16.174,0,0,0,1.787-.823,3.358,3.358,0,0,0,.978-.7c.028-.044.019-.01.034-.063a1.532,1.532,0,0,0,0-.443c-.01-.117-.03-.259-.052-.394a.552.552,0,0,0,.078.2.607.607,0,0,0,.156.2,3.211,3.211,0,0,0-1.194-.271,12.191,12.191,0,0,0-1.989.034h-.01a2.367,2.367,0,0,1-.543-4.7,9.83,9.83,0,0,0,1.32-.353,9.529,9.529,0,0,0,1.294-.537,4.209,4.209,0,0,0,.918-.607c.212-.193.206-.274.191-.188-.007.02.021.121,0-.087a1.762,1.762,0,0,0-.078-.315.9.9,0,0,0-.287-.4,3.64,3.64,0,0,0-1.995-.534l-.149.006-.09-.008.188-.008c-.416-.02-.847,0-1.292,0l-1.4.047a1.66,1.66,0,0,1-.782-3.151Z" transform="translate(-498.775 -329.793)"/></g><g transform="translate(21.837 11.226)"><path class="c" d="M513.133,320.589c1.5-.907,3.155-.815,4.835-.747a13.731,13.731,0,0,1,2.652.383,7.062,7.062,0,0,1,3.017,1.522,4.689,4.689,0,0,1,1.287,1.924,4.862,4.862,0,0,1,.2,2.28,5.088,5.088,0,0,1-.776,1.991,6.053,6.053,0,0,1-1.241,1.348,8.657,8.657,0,0,1-2.58,1.432,5.1,5.1,0,0,1-2.612.206,1.811,1.811,0,0,1-.928-3.053l.095-.1a7.867,7.867,0,0,1,1.653-1.234,5.648,5.648,0,0,0,1.28-.858,1.071,1.071,0,0,0,.25-.328c.03-.073.006-.089.016-.1-.017-.036-.023-.014,0,.057s.068.121.028.085a2.871,2.871,0,0,0-.983-.462,11.857,11.857,0,0,0-1.784-.374c-1.314-.2-2.675-.046-4.168-.729l-.05-.023a1.828,1.828,0,0,1-.184-3.225Z" transform="translate(-512.25 -319.802)"/></g></g><g transform="translate(478.566 308.665)"><g transform="translate(0 0)"><path class="c" d="M485.311,360.436c1.455.469,2.873,1.016,4.284,1.579s2.8,1.164,4.181,1.792c2.761,1.251,5.5,2.554,8.247,3.829a2.2,2.2,0,0,1,1.231,2.422l-.015.071c-.463,2.317-.959,4.627-1.457,6.935-.482,2.313-1.029,4.611-1.548,6.916l-1.631,6.9a32.67,32.67,0,0,1-2.172,6.777,1.566,1.566,0,0,1-2.978-.659,32.718,32.718,0,0,1,.889-7.061l1.43-6.942c.5-2.308.974-4.623,1.513-6.922.522-2.3,1.047-4.607,1.6-6.9l1.216,2.493c-2.719-1.337-5.453-2.646-8.162-4.006-1.356-.678-2.694-1.391-4.022-2.125s-2.642-1.5-3.921-2.338a1.539,1.539,0,0,1,1.315-2.753Z" transform="translate(-483.3 -360.362)"/></g></g></g></svg>