<svg xmlns="http://www.w3.org/2000/svg" width="179.018" height="316.34" viewBox="0 0 179.018 316.34"><defs><style>.a{fill:#b1dde3;}.b{fill:#fff;}.c{fill:#f9d0ab;}.d{fill:#534034;}.e{fill:#eeeeef;}.f{fill:#cddc4c;}.g{fill:#fbe4d5;}.h{fill:#fbe4cd;}.i{fill:#a38a77;}.j{fill:#e6c099;}.k,.l{fill:#f8cab3;}.l{stroke:#f8cab3;stroke-miterlimit:10;stroke-width:8.032px;}.m{fill:#f3a481;}</style></defs><g transform="translate(-729.612 -116.784)"><path class="a" d="M882.212,384.41l-.7-8.03a34.109,34.109,0,0,0-18.26-27.4l-7.855-4.074-10.373-5.382-52.315,2.728-8.043,3.707a34.154,34.154,0,0,0-18.529,21.725l-14.9,52.551a8.011,8.011,0,0,0,2.237,8.044l29.843,27.8,6.728-4.218h98.028ZM782.076,427.56l-7.336-6.707,12.446-40.315Z" transform="translate(-3.653 -38.167)"/><path class="b" d="M833.86,358.695l1.259,22.755h-10.7l1.259-22.755-11.832-3.642-16.074,2.406,7.689-18.377,4.176-2.172,19.984,18.611,19.023-18.778,4.408,2.306,10.373,19.313-16.935-4.411Z" transform="translate(-11.679 -37.69)"/><path class="c" d="M851.095,336.6l-19.023,18.778-19.984-18.611,1.657-.869h35.992Z" transform="translate(-14.132 -37.545)"/><g transform="translate(876.693 344.728)"><path class="d" d="M910.728,393.227c1.341,5.546,1.687,11.179,2.267,16.793s1.062,11.234,1.576,16.853c.464,5.622.945,11.244,1.357,16.871.394,5.629,1.037,11.236.663,16.933a1.782,1.782,0,0,1-3.51.3c-1.351-5.545-1.685-11.18-2.269-16.793-.565-5.614-1.062-11.234-1.574-16.853-.464-5.623-.944-11.245-1.356-16.872-.4-5.628-1.029-11.236-.664-16.932a1.782,1.782,0,0,1,3.51-.3Z" transform="translate(-907.108 -391.864)"/></g><g transform="translate(839.871 299.718)"><path class="d" d="M864.981,337.621c4.455,1.346,8.45,3.581,12.552,5.6,2.043,1.032,4.089,2.039,6.125,3.095a38.375,38.375,0,0,1,6.2,4.024,35.493,35.493,0,0,1,5.207,5.24,33.294,33.294,0,0,1,4.012,6.184,34.212,34.212,0,0,1,2.663,6.85,22.356,22.356,0,0,1,.678,7.268,1.788,1.788,0,0,1-3.49.375l-.02-.066c-.646-2.121-1.207-4.173-1.879-6.193a34.432,34.432,0,0,0-2.5-5.838,31.148,31.148,0,0,0-3.557-5.231,30.267,30.267,0,0,0-4.49-4.431,33.013,33.013,0,0,0-5.257-3.492l-6.055-3.227c-4.019-2.189-8.145-4.166-11.812-7.034a1.793,1.793,0,0,1,1.622-3.128Z" transform="translate(-862.671 -337.546)"/></g><g transform="translate(784.458 300.228)"><path class="d" d="M853.746,338.735c1.872,3.141,3.685,6.315,5.477,9.5,1.819,3.17,3.537,6.4,5.31,9.59a1.633,1.633,0,0,1-1.816,2.38l-.046-.011c-2.832-.7-5.651-1.45-8.476-2.172l-8.473-2.187,1.025-.054-12.616,4.772,1.117-1.712,1.309,22.752a1.773,1.773,0,0,1-1.669,1.872c-.033,0-.074,0-.106,0l-10.7-.009h-.006a1.764,1.764,0,0,1-1.763-1.766c0-.031,0-.069,0-.1l1.309-22.751,1.21,1.737-11.823-3.668.747.056c-5.361.778-10.714,1.609-16.083,2.343l-.036.005a1.617,1.617,0,0,1-1.7-2.242L797.9,352.5c.647-1.529,1.338-3.039,2.009-4.558s1.337-3.039,2.036-4.547,1.378-3.022,2.094-4.522a1.176,1.176,0,0,1,2.167.907c-.565,1.563-1.165,3.112-1.751,4.666s-1.206,3.094-1.807,4.642-1.2,3.1-1.836,4.63l-1.878,4.613-1.741-2.237c5.348-.871,10.71-1.643,16.064-2.469a1.656,1.656,0,0,1,.73.05l.018.007,11.839,3.615a1.715,1.715,0,0,1,1.211,1.729v.009l-1.21,22.757-1.765-1.866,10.7-.009-1.774,1.876-1.21-22.757v-.008a1.725,1.725,0,0,1,1.117-1.7l12.638-4.717.007,0a1.68,1.68,0,0,1,1.018-.051l8.463,2.223c2.819.748,5.646,1.468,8.459,2.239l-1.863,2.369c-1.684-3.243-3.424-6.456-5.063-9.723-1.666-3.252-3.311-6.516-4.9-9.812a1.175,1.175,0,0,1,2.069-1.111Z" transform="translate(-795.799 -338.162)"/></g><g transform="translate(796.88 297.973)"><path class="d" d="M812.665,335.826a117.741,117.741,0,0,1,10.349,8.922l10.05,9.244-2.468.036,9.573-9.328a113.388,113.388,0,0,1,9.878-9.017,1.185,1.185,0,0,1,1.651,1.672,113.52,113.52,0,0,1-9.144,9.761l-9.452,9.45a1.775,1.775,0,0,1-2.469.036l-9.935-9.367a118.008,118.008,0,0,1-9.635-9.689,1.184,1.184,0,0,1,1.6-1.719Z" transform="translate(-810.79 -335.441)"/></g><g transform="translate(852.541 341.109)"><path class="d" d="M883.063,460.18a168.933,168.933,0,0,1-1.884-17.789l-1.361-17.825-1.154-17.839a168.054,168.054,0,0,1-.63-17.876,1.419,1.419,0,0,1,2.813-.2,168.015,168.015,0,0,1,1.883,17.788l1.36,17.825,1.153,17.84a169.117,169.117,0,0,1,.631,17.876,1.419,1.419,0,0,1-2.812.2Z" transform="translate(-877.961 -387.496)"/></g><g transform="translate(776.955 341.186)"><path class="d" d="M786.811,435.644a76.738,76.738,0,0,1,.637-11.825c.365-3.925.785-7.845,1.19-11.765.446-3.916.878-7.834,1.364-11.746a76.129,76.129,0,0,1,1.918-11.686,1.431,1.431,0,0,1,2.8.3,76.01,76.01,0,0,1-.636,11.825c-.365,3.925-.785,7.844-1.191,11.764-.446,3.917-.878,7.834-1.365,11.746a76.611,76.611,0,0,1-1.918,11.686,1.431,1.431,0,0,1-2.8-.3Z" transform="translate(-786.745 -387.589)"/></g><g transform="translate(771.173 341.646)"><path class="d" d="M793.2,389.7a46.694,46.694,0,0,1-2.067,9c-.836,2.954-1.724,5.893-2.6,8.835-.913,2.931-1.814,5.866-2.766,8.784a46.344,46.344,0,0,1-3.3,8.622,1.445,1.445,0,0,1-2.7-.821,46.3,46.3,0,0,1,2.066-9c.835-2.954,1.724-5.893,2.6-8.835.913-2.931,1.814-5.866,2.767-8.785a46.618,46.618,0,0,1,3.3-8.622,1.444,1.444,0,0,1,2.7.821Z" transform="translate(-779.767 -388.145)"/></g><g transform="translate(804.441 337.451)"><path class="b" d="M913.787,450.841c-26.079-30.222-52.156,30.222-78.234,0V394.873c26.078,30.222,52.158-30.222,78.234,0Z" transform="translate(-822.594 -383.608)"/><path class="e" d="M871.4,398.556c-11.947,6.777-23.895,11.967-35.842-1.879v41.7C862.339,437,859.269,411.685,871.4,398.556Z" transform="translate(-822.594 -385.412)"/><g transform="translate(10.389 9.61)"><path class="d" d="M915.017,406.08q.312,5.779.449,11.555.179,5.779.236,11.556c.087,7.7.06,15.407.1,23.111a2.539,2.539,0,0,1-4.435,1.7l-.033-.038a25,25,0,0,0-7.659-6.2,15.88,15.88,0,0,0-9.206-1.435,31.91,31.91,0,0,0-9.582,3.114c-3.155,1.51-6.258,3.322-9.41,5.159s-6.367,3.712-9.812,5.334a36.97,36.97,0,0,1-11.2,3.525,22.326,22.326,0,0,1-6.187-.082,20.539,20.539,0,0,1-5.936-1.9,30.058,30.058,0,0,1-9.259-7.5,2.523,2.523,0,0,1-.624-1.667V452.3l.08-27.984c.037-4.664.075-9.327.209-13.992l.2-7c.108-2.333.177-4.664.322-7a1.765,1.765,0,0,1,3.523,0c.144,2.332.214,4.664.322,7l.2,7c.133,4.664.172,9.328.209,13.992l.08,27.984-.624-1.68a24.962,24.962,0,0,0,7.65,6.189,15.841,15.841,0,0,0,9.191,1.432,31.866,31.866,0,0,0,9.573-3.112c3.153-1.513,6.256-3.32,9.423-5.134s6.382-3.683,9.824-5.309a36.94,36.94,0,0,1,11.195-3.522,22.275,22.275,0,0,1,6.18.082,20.5,20.5,0,0,1,5.927,1.9,30.022,30.022,0,0,1,9.251,7.5l-4.469,1.661c.036-7.7.009-15.407.1-23.111q.066-5.777.236-11.556.139-5.777.449-11.555a1.764,1.764,0,0,1,3.523,0Z" transform="translate(-832.451 -394.679)"/></g><g transform="translate(11.309)"><path class="d" d="M836.546,393.2a33.436,33.436,0,0,0,8.2,5.794,16.26,16.26,0,0,0,9.264,1.362,32.62,32.62,0,0,0,9.573-3.158c3.155-1.511,6.255-3.325,9.407-5.163,3.165-1.819,6.385-3.682,9.828-5.306a36.3,36.3,0,0,1,11.2-3.479,20.748,20.748,0,0,1,12.051,2.048,24.173,24.173,0,0,1,8.711,7.9,1.772,1.772,0,0,1-2.631,2.335l-.036-.033a33.667,33.667,0,0,0-8.2-5.792,16.253,16.253,0,0,0-9.263-1.363,32.668,32.668,0,0,0-9.573,3.158c-3.155,1.511-6.255,3.325-9.407,5.162-3.166,1.818-6.385,3.681-9.828,5.3a36.36,36.36,0,0,1-11.2,3.479,20.737,20.737,0,0,1-12.05-2.05,24.256,24.256,0,0,1-8.712-7.9,1.772,1.772,0,0,1,2.632-2.335Z" transform="translate(-833.561 -383.082)"/></g><rect class="f" width="99.106" height="42.509" transform="translate(2.541 44.099)"/><path class="b" d="M922.087,466.23c-33.033-8.618-66.071,8.617-99.107,0V454.142c33.034,8.62,66.072-8.62,99.107,0Z" transform="translate(-820.439 -394.832)"/><g transform="translate(0.955 83.932)"><path class="d" d="M921.759,488.808c-8.259.857-16.517.713-24.776.805l-24.777.109-24.777-.109c-8.259-.1-16.517.059-24.777-.806a1.771,1.771,0,0,1,0-3.523c8.259-.865,16.517-.711,24.777-.806l24.777-.109,24.777.11c8.259.092,16.517-.052,24.776.8a1.771,1.771,0,0,1,0,3.523Z" transform="translate(-821.066 -484.37)"/></g><g transform="translate(0 41.423)"><path class="d" d="M820.694,478.256q-.307-5.314-.446-10.627-.177-5.314-.237-10.627c-.086-7.084-.064-14.169-.1-21.254a2.53,2.53,0,0,1,2.517-2.542h.024l49.553-.134,49.553.133h.019a2.53,2.53,0,0,1,2.523,2.537v.006c-.036,7.085-.008,14.17-.1,21.254q-.066,5.314-.236,10.627-.138,5.314-.449,10.627a1.765,1.765,0,0,1-3.523,0q-.312-5.314-.449-10.627-.179-5.314-.236-10.627c-.087-7.084-.061-14.169-.1-21.254l2.543,2.542-49.553.133-49.553-.134L825,435.748c-.033,7.085-.011,14.17-.1,21.254q-.067,5.314-.237,10.627-.138,5.314-.446,10.627a1.765,1.765,0,0,1-3.523,0Z" transform="translate(-819.914 -433.071)"/></g></g><path class="g" d="M821.075,480.363l-5.038-8.185s12.163-4.612,9.977-7.384a1.033,1.033,0,0,0-.465-.3c-1.359-.568-5.037-.367-8.848,0l-2.586.3c-4.44.533-8.418,1.235-8.418,1.235l-7.223-.6-5.122,7.854s18.08,14.733,20.631,15.6c2.486.8,23.135,2.44,24.062-.736a.579.579,0,0,0,.032-.233C838.076,486.578,821.075,480.363,821.075,480.363Z" transform="translate(-10.922 -59.52)"/><g transform="translate(780.77 402.082)"><path class="d" d="M798.276,463.147c2.426-.023,4.846.048,7.264.133l-.573.027c2.828-.6,5.617-1.107,8.484-1.484l2.125-.277c.7-.093,1.471-.155,2.173-.222,1.448-.125,2.9-.234,4.441-.245a16.773,16.773,0,0,1,2.5.143,7.4,7.4,0,0,1,.776.155,5.626,5.626,0,0,1,.923.322,3.62,3.62,0,0,1,.707.414,3.174,3.174,0,0,1,.5.476,3.958,3.958,0,0,1,.245.326,3.687,3.687,0,0,1,.491,3.168,4.714,4.714,0,0,1-.492,1.1,6.853,6.853,0,0,1-1.079,1.318,14.159,14.159,0,0,1-2.049,1.606,46.593,46.593,0,0,1-8.087,4.011l1.31-3.844L823,478.446l-1.352-1.1c3,1.1,5.968,2.22,8.934,3.432,1.482.608,2.961,1.231,4.452,1.912.747.341,1.493.7,2.271,1.107.394.212.783.423,1.247.729a5.756,5.756,0,0,1,.858.675,3.615,3.615,0,0,1,.36.409,3.02,3.02,0,0,1,.5.963,2.989,2.989,0,0,1,.1.522c.01.088.016.177.018.264v.058l-.007.23a2.933,2.933,0,0,1-.3,1.156l.169-.433a3.826,3.826,0,0,1-1.486,2.014,5.977,5.977,0,0,1-1.266.673,11.652,11.652,0,0,1-1.985.552,28,28,0,0,1-3.465.409c-2.232.143-4.4.118-6.556.051s-4.3-.208-6.447-.4c-1.075-.1-2.148-.21-3.24-.353-.548-.072-1.1-.151-1.683-.255-.3-.056-.592-.11-.99-.216a4.839,4.839,0,0,1-.761-.281c-.247-.113-.346-.178-.525-.272-1.132-.657-1.963-1.266-2.864-1.9-.878-.634-1.738-1.27-2.58-1.922q-2.537-1.943-4.98-3.96c-3.261-2.7-6.455-5.451-9.52-8.378a1.767,1.767,0,0,1,2.219-2.736l.007,0c3.468,2.377,6.848,4.882,10.217,7.369l5.035,3.728,2.51,1.81c.818.573,1.707,1.184,2.4,1.574.055.026.181.1.176.09s-.039,0-.023,0c.11.027.336.072.553.109.451.075.944.141,1.44.2,1,.118,2.017.211,3.039.292,2.047.159,4.108.263,6.158.307s4.094.022,6.063-.109a23.02,23.02,0,0,0,2.8-.337,6.679,6.679,0,0,0,1.054-.288c.114-.044.183-.093.128-.056a1.452,1.452,0,0,0-.516.8l.169-.433a2.17,2.17,0,0,0-.24.868l0,.082c0,.014,0-.038,0,.022,0,.075,0,.151.011.227a2.414,2.414,0,0,0,.442,1.157,1.6,1.6,0,0,0,.164.188c.106.1.006.007-.08-.045-.195-.129-.5-.3-.8-.458-.619-.324-1.3-.646-1.991-.957-1.385-.624-2.821-1.221-4.263-1.806-2.886-1.163-5.821-2.309-8.743-3.391l-.017-.006a2.639,2.639,0,0,1-1.335-1.1l-5.017-8.2a2.645,2.645,0,0,1,1.274-3.832l.036-.013a43.432,43.432,0,0,0,7.125-3.417,9.291,9.291,0,0,0,1.3-.978,2.33,2.33,0,0,0,.278-.3.561.561,0,0,0-.052.139,1.407,1.407,0,0,0-.031.567,1.435,1.435,0,0,0,.219.58c.027.038,0,0,.089.112a1.924,1.924,0,0,0,.311.295,1.29,1.29,0,0,0,.247.155c-.111-.045.026.007-.076-.026a2.092,2.092,0,0,0-.263-.055,12.03,12.03,0,0,0-1.726-.11c-1.284-.007-2.655.074-4.024.177-.7.059-1.342.1-2.046.183l-2.085.214c-2.743.307-5.547.626-8.29.981l-.206.027a1.463,1.463,0,0,1-.366,0c-2.4-.316-4.8-.646-7.186-1.07a1.77,1.77,0,0,1,.293-3.512Z" transform="translate(-791.349 -461.078)"/></g><path class="h" d="M748.8,247.56l3.242,10.691.162.294c.876,6.147,2.043,12.947,3.567,19.617l-1.33.295c-25.133-.295-23.511-24.489-19.49-30.767,1.719-2.681,5.059-3.3,7.913-2.909l.065-.131Z" transform="translate(-0.517 -21.91)"/><path class="h" d="M922.381,245.607c3.437-1.013,7.88-1.439,10.15,2.125,4.021,6.278,5.643,30.472-19.49,30.767l-.908-.23a203.874,203.874,0,0,0,4.086-21.317v-.392l4.345-9.973,1.816-1.013Z" transform="translate(-31.275 -21.951)"/><path class="i" d="M893.2,224.115l-1.816,1.013-4.345,9.973s-1.783-40.818-8.269-47.52c-6.518-6.7-20.074-11.869-20.074-11.869s-31.294,7.488-44.4,9.743c-12.939,2.191-55.162,1.8-55.162,1.8l-5.513,49.58-3.242-10.691-5.87-2.91-1.3-.654s-6.1-56.608,7.362-72.793C764,133.635,814.495,118.2,833.142,119.772c18.646,1.537,30.548,18.244,30.548,18.244.519,0,20.884.065,28.635,10.56,7.848,10.626,4.345,73.61,4.345,73.61Z" transform="translate(-2.095 -0.493)"/><path class="b" d="M906.657,148.577c-7.751-10.495-28.117-10.56-28.635-10.56,0,0-11.9-16.707-30.548-18.244-5.292-.445-13.15.481-22,2.4,1.214,0,2.377.026,3.431.1,22.278,1.638,36.5,19.444,36.5,19.444.62,0,24.951.07,34.212,11.255,7.861,9.495,6.19,57.068,5.445,73.653l.655-1.5,1.816-1.013,3.47-1.929S914.5,159.2,906.657,148.577Z" transform="translate(-16.427 -0.493)"/><path class="g" d="M889.476,246.692v.392A203.876,203.876,0,0,1,885.39,268.4c-2.983,11.771-7.3,23.181-13.458,29.753-14.982,15.922-42.482,18.016-49.552,18.016-7.1,0-34.569-2.093-49.552-18.016-6.162-6.571-10.248-18.015-13.036-29.818-1.525-6.67-2.691-13.47-3.567-19.617l-.162-.294,5.513-49.58s42.223.393,55.162-1.8c13.1-2.256,44.4-9.743,44.4-9.743s13.556,5.166,20.074,11.869C887.693,205.874,889.476,246.692,889.476,246.692Z" transform="translate(-4.532 -12.084)"/><path class="c" d="M823.773,325.782c-7.924,0-38.572-2.092-55.288-18.015-.149-.143-.282-.318-.428-.465a40.282,40.282,0,0,0,6.827,10.828c14.982,15.922,42.45,18.016,49.552,18.016,7.069,0,34.569-2.093,49.552-18.016,3.336-3.558,6.115-8.559,8.449-14.244a33.066,33.066,0,0,1-3.374,3.881C862.344,323.69,831.661,325.782,823.773,325.782Z" transform="translate(-6.587 -32.061)"/><path class="c" d="M882.209,199.172c-6.518-6.7-20.074-11.869-20.074-11.869s-31.294,7.488-44.4,9.743c-12.939,2.191-55.162,1.8-55.162,1.8l-.665,7.26c13.706.492,41.076,1.263,51.4.019,14.189-1.748,48.153-8.02,48.153-8.02S879,204.66,885.788,211.61C885.433,206.654,883.141,202.261,882.209,199.172Z" transform="translate(-5.535 -12.084)"/><g transform="translate(729.612 220.779)"><path class="d" d="M742.125,246.034a8.673,8.673,0,0,0-4.789,1.522,4.409,4.409,0,0,0-1.265,1.738,14.781,14.781,0,0,0-.884,2.686,23.655,23.655,0,0,0,.4,11.859,15.554,15.554,0,0,0,6.768,8.975,19.756,19.756,0,0,0,5.472,2.223c1.962.52,4,.872,6.123,1.34l.065.015a1.7,1.7,0,0,1-.1,3.332,21.731,21.731,0,0,1-14.042-2.712,19.085,19.085,0,0,1-5.709-4.984,21.2,21.2,0,0,1-3.432-6.692,26.611,26.611,0,0,1-1.109-7.263,27.34,27.34,0,0,1,.833-7.256,19.377,19.377,0,0,1,1.305-3.605,10.456,10.456,0,0,1,1.142-1.85,8.569,8.569,0,0,1,1.7-1.575,8.829,8.829,0,0,1,4.06-1.456,10.068,10.068,0,0,1,3.924.387,1.7,1.7,0,0,1-.372,3.31Z" transform="translate(-729.612 -242.284)"/></g><g transform="translate(752 246.915)"><path class="d" d="M888.9,275.772a115.094,115.094,0,0,1-6.015,23.292c-.754,1.886-1.555,3.762-2.468,5.6a55.527,55.527,0,0,1-3.082,5.392,33.837,33.837,0,0,1-3.963,4.962l-2.263,2.18a11.518,11.518,0,0,1-1.187,1.018l-1.223.971-1.226.97c-.413.317-.858.581-1.285.874-.867.566-1.722,1.155-2.6,1.7-1.8,1-3.582,2.053-5.462,2.874-1.84.924-3.761,1.618-5.656,2.388-1.932.648-3.851,1.347-5.815,1.869a94.327,94.327,0,0,1-11.88,2.591,89.114,89.114,0,0,1-12.169,1.08,88.152,88.152,0,0,1-12.18-1.036,97.421,97.421,0,0,1-11.886-2.564c-1.964-.524-3.89-1.2-5.819-1.857-.958-.352-1.9-.75-2.853-1.124-.956-.358-1.886-.793-2.812-1.237s-1.874-.834-2.767-1.355l-2.7-1.5c-.895-.511-1.739-1.124-2.609-1.684l-1.294-.858-1.227-.966c-.808-.659-1.652-1.269-2.425-1.971l-2.263-2.179a30.635,30.635,0,0,1-4-4.954,53.191,53.191,0,0,1-3.068-5.421c-.889-1.854-1.686-3.737-2.407-5.638a111.31,111.31,0,0,1-5.647-23.388,1.675,1.675,0,0,1,3.274-.677l.015.055c1.025,3.789,1.855,7.617,2.972,11.34s2.322,7.415,3.736,10.984a56.11,56.11,0,0,0,5.109,10.105,25.763,25.763,0,0,0,3.455,4.233l2.014,1.923c.691.621,1.46,1.163,2.184,1.751l1.1.864,1.181.771c.8.5,1.555,1.056,2.377,1.518l2.484,1.366c.816.475,1.71.82,2.561,1.236s1.719.807,2.616,1.135c.89.344,1.768.711,2.667,1.037,1.814.607,3.621,1.232,5.481,1.716a92.507,92.507,0,0,0,11.285,2.372,69.813,69.813,0,0,0,22.862-.04,89.428,89.428,0,0,0,11.279-2.4c1.861-.481,3.659-1.13,5.477-1.727,1.768-.712,3.573-1.348,5.272-2.2,1.752-.75,3.375-1.714,5.038-2.614.8-.493,1.576-1.024,2.367-1.533.389-.263.8-.5,1.17-.783l1.1-.867,1.1-.864a9.516,9.516,0,0,0,1.066-.9l2.015-1.922a28.933,28.933,0,0,0,3.444-4.267,60.474,60.474,0,0,0,5.206-10.09c1.455-3.558,2.74-7.217,3.9-10.936s2.068-7.522,3.163-11.288l.02-.07a1.674,1.674,0,0,1,3.259.741Z" transform="translate(-756.63 -273.824)"/></g><g transform="translate(880.341 220.726)"><path class="d" d="M921.8,243.543a13.791,13.791,0,0,1,3.7-1.182,10.422,10.422,0,0,1,4.3.182,8.152,8.152,0,0,1,4.032,2.609,12.688,12.688,0,0,1,2.027,3.8,22.694,22.694,0,0,1,.975,3.759,25.627,25.627,0,0,1,.4,3.789,27.791,27.791,0,0,1-.755,7.6,22.677,22.677,0,0,1-3.2,7.13,19.566,19.566,0,0,1-5.746,5.423,21.846,21.846,0,0,1-14.588,3.059,1.695,1.695,0,0,1-.1-3.334l.064-.013c2.21-.467,4.339-.838,6.373-1.4a19.175,19.175,0,0,0,5.636-2.425,15.44,15.44,0,0,0,4.225-4.145,17.7,17.7,0,0,0,2.4-5.532,22.747,22.747,0,0,0,.67-6.2,22.048,22.048,0,0,0-.965-6.119,8.3,8.3,0,0,0-1.126-2.359A3.842,3.842,0,0,0,928.447,247a8.565,8.565,0,0,0-2.587-.407,29.638,29.638,0,0,0-3.113.162l-.059,0a1.7,1.7,0,0,1-.887-3.216Z" transform="translate(-911.509 -242.22)"/></g><g transform="translate(737.391 116.784)"><path class="d" d="M741.065,222.265c-.626-4.2-1.065-8.363-1.384-12.564q-.515-6.292-.64-12.615a180.383,180.383,0,0,1,1.148-25.356,83.623,83.623,0,0,1,2.5-12.667,41.77,41.77,0,0,1,2.338-6.227c.256-.508.462-1.027.764-1.524l.88-1.494c.294-.5.682-.965,1.023-1.445.177-.236.35-.482.533-.709l.573-.64a48.135,48.135,0,0,1,10.254-8.3,107.17,107.17,0,0,1,11.266-6.144,184.019,184.019,0,0,1,23.737-9.05,174.775,174.775,0,0,1,24.743-5.818c2.116-.3,4.238-.577,6.4-.733a49.159,49.159,0,0,1,6.574-.134,36.726,36.726,0,0,1,12.927,3.112,44.936,44.936,0,0,1,11.079,7,50.675,50.675,0,0,1,4.7,4.486,43.945,43.945,0,0,1,4.093,5.115,1.674,1.674,0,0,1-2.672,2.007l-.054-.065a52.047,52.047,0,0,0-4.124-4.339c-1.479-1.371-2.991-2.7-4.592-3.914a46.888,46.888,0,0,0-10.265-6,33.5,33.5,0,0,0-11.339-2.628,44.494,44.494,0,0,0-5.948.157c-2.009.153-4.033.429-6.052.724a169.921,169.921,0,0,0-23.994,5.772,179.534,179.534,0,0,0-23.036,8.908,102.015,102.015,0,0,0-10.761,5.8,43.487,43.487,0,0,0-9.222,7.349l-.477.524c-.144.179-.269.364-.406.544-.26.372-.557.7-.794,1.105l-.715,1.2c-.248.394-.427.852-.645,1.274a37,37,0,0,0-2.085,5.485,79.055,79.055,0,0,0-2.4,11.894,190.291,190.291,0,0,0-1.289,24.686c.009,8.277.28,16.608.693,24.874l0,.027a1.675,1.675,0,0,1-3.33.331Z" transform="translate(-739 -116.784)"/></g><g transform="translate(746.666 185.337)"><path class="d" d="M762.233,201.121a81.4,81.4,0,0,1-.646,12.477c-.41,4.137-.815,8.275-1.269,12.407-.425,4.135-.914,8.263-1.392,12.393l-1.51,12.38-.007.056a2.369,2.369,0,0,1-4.627.372c-.517-1.789-1.013-3.585-1.449-5.4s-.838-3.638-1.122-5.5a1.691,1.691,0,0,1,3.2-.972c.8,1.7,1.48,3.443,2.121,5.195s1.23,3.518,1.793,5.293l-4.633.427,1.246-12.41c.441-4.133.87-8.268,1.364-12.4.466-4.131.979-8.257,1.488-12.382a81.4,81.4,0,0,1,2.111-12.314,1.7,1.7,0,0,1,3.327.37Z" transform="translate(-750.192 -199.513)"/></g><g transform="translate(768.724 137.053)"><g transform="translate(0 0)"><path class="d" d="M880.894,141.267a46.086,46.086,0,0,1,5.983,1.394,33.083,33.083,0,0,1,5.81,2.335,24.34,24.34,0,0,1,5.3,3.706c.405.374.78.788,1.167,1.186.361.447.712.821,1.076,1.334a14.629,14.629,0,0,1,1.611,3.108,38.425,38.425,0,0,1,1.651,6.079c.394,2.009.7,4.011.949,6.011.508,4,.807,7.984,1,11.967.394,7.963.463,15.905.388,23.839s-.309,15.845-.7,23.8a2.44,2.44,0,0,1-1.242,2.007l-.022.012-5.278,2.95,1.064-1.173-4.329,9.979a2.5,2.5,0,0,1-4.78-.863v-.026c-.3-5.926-.764-11.911-1.373-17.833-.633-5.92-1.366-11.841-2.532-17.581a45.726,45.726,0,0,0-2.328-8.17,11.5,11.5,0,0,0-.839-1.641,4.3,4.3,0,0,0-.429-.581,3.48,3.48,0,0,0-.3-.3l-.365-.348a30.343,30.343,0,0,0-3.209-2.64,61.1,61.1,0,0,0-7.406-4.465c-2.575-1.338-5.293-2.585-7.94-3.639l1.447.094q-10.656,2.517-21.325,4.9c-7.129,1.577-14.24,3.143-21.482,4.479-1.782.346-3.742.622-5.584.8s-3.7.307-5.535.408q-5.513.307-10.991.413-5.485.077-10.96.058c-3.651-.044-7.3-.088-10.947-.216h-.008a1.675,1.675,0,0,1-.009-3.347l10.9-.443q5.447-.191,10.881-.464c3.621-.173,7.239-.339,10.831-.609,1.8-.128,3.581-.293,5.351-.482,1.779-.211,3.427-.441,5.22-.792,7.077-1.332,14.188-2.923,21.274-4.519s14.177-3.266,21.242-4.961l.024-.006a2.355,2.355,0,0,1,1.423.1,92.361,92.361,0,0,1,8.462,3.836,65.911,65.911,0,0,1,8.037,4.812,35.291,35.291,0,0,1,3.757,3.073l.45.429a6.08,6.08,0,0,1,.488.5,9.236,9.236,0,0,1,.921,1.221,16.331,16.331,0,0,1,1.231,2.358,50.2,50.2,0,0,1,2.665,9.128,174.761,174.761,0,0,1,2.622,18.1c.6,6.038,1.041,12.046,1.328,18.127l-4.781-.888,4.363-9.964,0-.01a2.449,2.449,0,0,1,1.06-1.163l5.294-2.935-1.265,2.019c.415-7.829.668-15.719.78-23.579s.063-15.73-.3-23.55c-.193-3.907-.444-7.806-.858-11.656a52.6,52.6,0,0,0-2.16-11.077,10.547,10.547,0,0,0-1.01-2.188c-.192-.3-.5-.665-.747-1-.294-.317-.568-.65-.878-.957a20.237,20.237,0,0,0-4.276-3.215,40.109,40.109,0,0,0-10.526-3.981l-.012,0a1.675,1.675,0,0,1,.678-3.277Z" transform="translate(-776.812 -141.245)"/></g></g><g transform="translate(774.36 159.285)"><path class="d" d="M843.484,170.809a36.317,36.317,0,0,1-7.06,2.831c-2.4.71-4.823,1.29-7.246,1.854-4.848,1.129-9.736,2-14.635,2.757s-9.82,1.313-14.744,1.8c-2.464.21-4.926.442-7.392.612a64.041,64.041,0,0,1-7.43,0,1.464,1.464,0,0,1-.225-2.889l.027-.006a63.6,63.6,0,0,1,7.282-1.134c2.43-.291,4.866-.516,7.3-.79,4.852-.6,9.706-1.177,14.524-1.948q7.244-1.052,14.393-2.528c2.382-.485,4.741-1.057,7.092-1.622,2.336-.558,4.743-1.123,7-1.612l.1-.023a1.457,1.457,0,0,1,1.01,2.7Z" transform="translate(-783.613 -168.074)"/></g><g transform="translate(769.228 145.888)"><path class="d" d="M809.15,154.66c-2.359,1.483-4.9,1.99-7.415,2.667-2.517.654-5.054,1.189-7.593,1.7-2.546.481-5.1.911-7.657,1.274a29.323,29.323,0,0,1-7.755.5,1.5,1.5,0,0,1-.409-2.869l.012,0c2.431-1.062,4.967-1.308,7.47-1.8s5.011-.916,7.5-1.428c2.5-.465,4.987-.976,7.469-1.492a42.32,42.32,0,0,1,7.459-1.3l.09,0a1.492,1.492,0,0,1,.829,2.754Z" transform="translate(-777.42 -151.906)"/></g><g transform="translate(738.628 230.997)"><g transform="translate(0 0)"><path class="j" d="M741.839,254.636a7.624,7.624,0,0,1,4.143,2.764,15.551,15.551,0,0,1,2.617,4.156,18.008,18.008,0,0,1,1.156,4.7,9.282,9.282,0,0,1,.09,1.189c.017.4.034.792.031,1.187a7.772,7.772,0,0,1-.487,2.323,1.165,1.165,0,0,1-2.176-.016l-.05-.137a7.7,7.7,0,0,1-.4-2.093c-.11-.674-.1-1.363-.237-2.022a17.932,17.932,0,0,0-1.064-3.828A14.416,14.416,0,0,0,743.5,259.5c-.784-1.024-1.857-1.831-2.609-2.845l-.181-.244a1.127,1.127,0,0,1,1.125-1.777Z" transform="translate(-740.492 -254.615)"/></g></g><g transform="translate(887.695 231.002)"><path class="j" d="M929.318,256.639c-.705,1.033-1.748,1.874-2.508,2.914a15.759,15.759,0,0,0-1.925,3.387,19.668,19.668,0,0,0-1.11,3.819c-.152.655-.161,1.342-.287,2.012a7.6,7.6,0,0,1-.461,2.07l-.05.123a1.167,1.167,0,0,1-2.18-.047,7.687,7.687,0,0,1-.414-2.313c.008-.391.035-.781.061-1.173a9.838,9.838,0,0,1,.117-1.173,19.091,19.091,0,0,1,1.192-4.619,16.446,16.446,0,0,1,2.528-4.131,7.673,7.673,0,0,1,4.022-2.859,1.127,1.127,0,0,1,1.19,1.729Z" transform="translate(-920.384 -254.621)"/></g><path class="k" d="M863.42,279.439c0,12.847-16.724,9.353-37.354,9.353s-37.353,3.494-37.353-9.353,16.724-23.261,37.353-23.261S863.42,266.592,863.42,279.439Z" transform="translate(-10.127 -23.885)"/><path class="l" d="M805.151,260.755c0,5.283-2.312,9.567-5.164,9.567s-5.164-4.283-5.164-9.567,2.312-9.568,5.164-9.568S805.151,255.47,805.151,260.755Z" transform="translate(-11.174 -23.03)"/><path class="l" d="M865.592,260.755c0,5.283,2.312,9.567,5.164,9.567s5.163-4.283,5.163-9.567-2.312-9.568-5.163-9.568S865.592,255.47,865.592,260.755Z" transform="translate(-23.3 -23.03)"/><g transform="translate(803.486 271.336)"><path class="d" d="M845.1,310.147a16.82,16.82,0,0,1-3-.505c-.989-.25-1.977-.523-2.993-.692a36.022,36.022,0,0,0-6.142-.568,32.118,32.118,0,0,0-6.11.426,27.464,27.464,0,0,0-2.923.68c-.476.127-.961.239-1.439.351a8.023,8.023,0,0,1-1.4.221l-.745-.023a1.632,1.632,0,0,1-1.16-2.729c1.955-2.155,4.341-2.7,6.7-3.283a30.591,30.591,0,0,1,7.142-.728,33.239,33.239,0,0,1,7.084.883c2.323.594,4.645,1.139,6.6,3.039a1.713,1.713,0,0,1-1.246,2.942Z" transform="translate(-818.762 -303.295)"/></g><g transform="translate(774.401 202.422)"><g transform="translate(0 0)"><path class="d" d="M784.956,231.487c1.876-.743,3.833-.734,5.675-1.105a18.633,18.633,0,0,0,5.073-1.646,10.761,10.761,0,0,0,1.014-.612l.452-.336c.153-.11.316-.284.474-.422a12.416,12.416,0,0,0,1.705-1.892,11.576,11.576,0,0,0,1.219-2.16l.531-1.12c.1-.188.178-.376.28-.564.089-.162.194-.423.3-.48l1.627-.877a1.193,1.193,0,0,1,1.616.485,1.264,1.264,0,0,1,.1.253c.763,2.808-.363,5.114-1.628,7.19a14.741,14.741,0,0,1-2.286,2.8c-.223.206-.411.414-.665.618l-.769.607a15.214,15.214,0,0,1-1.6,1.014,20.593,20.593,0,0,1-6.676,1.961c-2.223.253-4.392.532-6.628-.37a1.761,1.761,0,0,1,0-3.268Z" transform="translate(-783.662 -220.131)"/></g></g><g transform="translate(840.112 202.422)"><path class="d" d="M883.467,234.829c-2.236.9-4.4.622-6.628.37a20.59,20.59,0,0,1-6.676-1.961,15.152,15.152,0,0,1-1.6-1.014l-.769-.607c-.254-.2-.443-.412-.665-.618a14.708,14.708,0,0,1-2.286-2.8c-1.265-2.076-2.391-4.382-1.628-7.19a1.192,1.192,0,0,1,1.463-.838,1.134,1.134,0,0,1,.248.1l1.633.879c.106.057.211.318.3.48.1.188.184.376.281.564l.531,1.12a11.535,11.535,0,0,0,1.219,2.16,12.381,12.381,0,0,0,1.705,1.892c.158.138.321.312.473.422l.452.336a10.646,10.646,0,0,0,1.014.612,18.633,18.633,0,0,0,5.073,1.646c1.842.371,3.8.362,5.675,1.105l.181.071a1.761,1.761,0,0,1,.009,3.271Z" transform="translate(-862.962 -220.131)"/></g><g transform="translate(857.374 233.283)"><g transform="translate(0 0)"><path class="m" d="M887.786,257.748a5.385,5.385,0,0,1,1.228,3.55,14.734,14.734,0,0,1-.189,3.593,16.959,16.959,0,0,1-1.037,3.375,17.366,17.366,0,0,1-.752,1.569,4.355,4.355,0,0,1-1.2,1.3,1.3,1.3,0,0,1-2.038-1.022l0-.138a4,4,0,0,1,.286-1.55c.143-.476.372-.916.508-1.385a20.32,20.32,0,0,0,.726-2.8,15.948,15.948,0,0,0,.279-2.8,10.172,10.172,0,0,1,.046-2.737l.153-.5a1.181,1.181,0,0,1,1.992-.459Z" transform="translate(-883.793 -257.373)"/></g><g transform="translate(5.62 1.327)"><path class="m" d="M894.038,259.3a4.664,4.664,0,0,1,1.066,3.081,12.849,12.849,0,0,1-.164,3.119,14.756,14.756,0,0,1-.9,2.928c-.191.47-.418.918-.65,1.363a3.829,3.829,0,0,1-1.041,1.129,1.129,1.129,0,0,1-1.771-.909l0-.1a7.461,7.461,0,0,1,.689-2.547,17.733,17.733,0,0,0,.63-2.427,13.864,13.864,0,0,0,.243-2.432,8.689,8.689,0,0,1,.04-2.376l.133-.434a1.025,1.025,0,0,1,1.728-.4Z" transform="translate(-890.575 -258.974)"/></g></g><g transform="translate(768.329 233.283)"><g transform="translate(4.923 0)"><path class="m" d="M785.69,258.706a10.172,10.172,0,0,1,.046,2.737,15.948,15.948,0,0,0,.279,2.8,20.31,20.31,0,0,0,.726,2.8c.136.469.365.91.508,1.385a4,4,0,0,1,.286,1.55l0,.139a1.3,1.3,0,0,1-2.039,1.02,4.356,4.356,0,0,1-1.2-1.3,17.175,17.175,0,0,1-.752-1.569,16.967,16.967,0,0,1-1.037-3.375,14.734,14.734,0,0,1-.189-3.593,5.385,5.385,0,0,1,1.228-3.55,1.181,1.181,0,0,1,1.99.454Z" transform="translate(-782.276 -257.374)"/></g><g transform="translate(0 1.326)"><path class="m" d="M779.3,260.131a8.686,8.686,0,0,1,.04,2.376,13.857,13.857,0,0,0,.243,2.432,17.712,17.712,0,0,0,.63,2.427,7.458,7.458,0,0,1,.689,2.547l0,.1a1.13,1.13,0,0,1-1.771.908,3.83,3.83,0,0,1-1.041-1.129c-.233-.445-.46-.893-.651-1.363a14.76,14.76,0,0,1-.9-2.928,12.852,12.852,0,0,1-.164-3.119,4.664,4.664,0,0,1,1.067-3.081,1.024,1.024,0,0,1,1.448-.048,1.008,1.008,0,0,1,.278.442Z" transform="translate(-776.335 -258.974)"/></g></g><g transform="translate(744.412 302.239)"><path class="d" d="M792.907,344.151c-2.62,1.4-5.272,2.754-7.914,4.1a34.8,34.8,0,0,0-6.838,4.619,32.832,32.832,0,0,0-9.239,13.384c-.254.636-.442,1.294-.646,1.947s-.4,1.408-.6,2.106l-1.2,4.288-2.4,8.576-4.809,17.151-4.809,17.151-.6,2.145-.3,1.071-.147.528-.084.348a5.3,5.3,0,0,0,.21,2.82,5.14,5.14,0,0,0,.665,1.259,7.587,7.587,0,0,0,1.155,1.216l3.25,3.044,26,24.357-4.139.485,11.391-16.982.421,3.452c-3.428-3.182-6.845-6.377-10.211-9.626q-2.535-2.426-5.029-4.9c-1.648-1.663-3.324-3.3-4.946-4.987a1.894,1.894,0,0,1,2.55-2.789c1.83,1.463,3.606,2.986,5.41,4.48q2.677,2.27,5.328,4.57c3.537,3.063,7.025,6.178,10.5,9.307a2.647,2.647,0,0,1,.437,3.428l-.017.024L785,457.777a2.728,2.728,0,0,1-3.78.769,2.861,2.861,0,0,1-.336-.263l-.023-.022-26.139-24.206-3.267-3.026a13.279,13.279,0,0,1-1.888-2.023,10.83,10.83,0,0,1-1.866-8.6l.18-.733.155-.544.307-1.071.614-2.14,4.908-17.123,4.909-17.122,2.454-8.562,1.227-4.281c.215-.728.387-1.4.636-2.171s.47-1.531.768-2.275A35.707,35.707,0,0,1,774.9,348.974a35.327,35.327,0,0,1,8.161-4.9c2.748-1.146,5.491-2.276,8.262-3.359a1.893,1.893,0,0,1,1.581,3.432Z" transform="translate(-747.473 -340.589)"/></g><g transform="translate(785.851 234.176)"><g transform="translate(46.529 11.252)"><path class="m" d="M867.551,273.609a18.825,18.825,0,0,1-2.538,4.7c-.952,1.493-1.942,2.962-2.922,4.437-1.008,1.457-2.006,2.918-3.042,4.355a18.67,18.67,0,0,1-3.427,4.094,1.235,1.235,0,0,1-1.944-1.318,18.712,18.712,0,0,1,2.537-4.7c.952-1.494,1.942-2.962,2.923-4.437,1.008-1.457,2.007-2.918,3.043-4.355a18.841,18.841,0,0,1,3.426-4.094,1.234,1.234,0,0,1,1.944,1.318Z" transform="translate(-853.63 -272.03)"/></g><g transform="translate(34.73 4.956)"><path class="m" d="M857.111,266.062a32.3,32.3,0,0,1-3.481,6.086c-1.266,1.957-2.57,3.889-3.865,5.827-1.322,1.919-2.634,3.845-3.985,5.745a32.094,32.094,0,0,1-4.37,5.484,1.21,1.21,0,0,1-1.943-1.319,32.094,32.094,0,0,1,3.48-6.087c1.266-1.957,2.57-3.888,3.865-5.826,1.323-1.919,2.636-3.844,3.987-5.744a32.325,32.325,0,0,1,4.369-5.485,1.209,1.209,0,0,1,1.944,1.319Z" transform="translate(-839.392 -264.431)"/></g><g transform="translate(22.627 1.324)"><path class="m" d="M844.819,261.7a42.423,42.423,0,0,1-4.056,6.936c-1.458,2.24-2.954,4.454-4.441,6.675-1.514,2.2-3.018,4.41-4.56,6.594a42.13,42.13,0,0,1-4.946,6.332,1.2,1.2,0,0,1-1.943-1.318,42.051,42.051,0,0,1,4.055-6.936c1.458-2.24,2.954-4.454,4.441-6.675,1.515-2.2,3.02-4.41,4.562-6.593a42.381,42.381,0,0,1,4.945-6.333,1.2,1.2,0,0,1,1.944,1.318Z" transform="translate(-824.786 -260.049)"/></g><g transform="translate(10.4 0)"><path class="m" d="M830.948,260.111a46.655,46.655,0,0,1-4.277,7.259c-1.532,2.348-3.1,4.67-4.66,7-1.587,2.31-3.165,4.626-4.78,6.918a46.294,46.294,0,0,1-5.166,6.656,1.2,1.2,0,0,1-1.943-1.318,46.186,46.186,0,0,1,4.276-7.26c1.531-2.348,3.1-4.67,4.66-7,1.588-2.31,3.166-4.626,4.781-6.917A46.658,46.658,0,0,1,829,258.791a1.2,1.2,0,0,1,1.944,1.319Z" transform="translate(-810.03 -258.451)"/></g><g transform="translate(0 1.815)"><path class="m" d="M815.347,262.272a32.91,32.91,0,0,1-3.518,6.141c-1.279,1.976-2.594,3.925-3.9,5.881-1.334,1.937-2.659,3.881-4.022,5.8a32.7,32.7,0,0,1-4.407,5.538,1.209,1.209,0,0,1-1.943-1.318,32.69,32.69,0,0,1,3.517-6.142c1.279-1.976,2.6-3.924,3.9-5.881,1.335-1.937,2.66-3.881,4.023-5.8a32.984,32.984,0,0,1,4.406-5.539,1.209,1.209,0,0,1,1.944,1.319Z" transform="translate(-797.48 -260.64)"/></g></g><path class="d" d="M805.151,260.755c0,5.283-2.312,9.567-5.164,9.567s-5.164-4.283-5.164-9.567,2.312-9.568,5.164-9.568S805.151,255.47,805.151,260.755Z" transform="translate(-11.174 -23.03)"/><path class="d" d="M865.592,260.755c0,5.283,2.312,9.567,5.164,9.567s5.163-4.283,5.163-9.567-2.312-9.568-5.163-9.568S865.592,255.47,865.592,260.755Z" transform="translate(-23.3 -23.03)"/><g transform="translate(807.302 240.075)"><path class="d" d="M836.031,269.307a9.2,9.2,0,0,1-2.446.824c-.824.181-1.657.237-2.488.342-1.661.194-3.322.39-4.988.54l2.085-3.544c.484,1.033.956,2.07,1.4,3.119s.917,2.087,1.345,3.145l1.306,3.162a10.247,10.247,0,0,1,.77,3.4,1.814,1.814,0,0,1-3.054,1.369,10.24,10.24,0,0,1-2.029-2.838l-1.493-3.078c-.5-1.023-.973-2.062-1.453-3.1s-.947-2.073-1.4-3.122l-.021-.047a2.514,2.514,0,0,1,1.32-3.3,2.572,2.572,0,0,1,.786-.2c1.666-.137,3.336-.227,5.007-.32.835-.038,1.667-.126,2.509-.089a9.2,9.2,0,0,1,2.551.394,1.815,1.815,0,0,1,.287,3.334Z" transform="translate(-823.367 -265.57)"/></g></g></svg>